<svg width="300" height="210" viewBox="0 0 300 210" fill="none" xmlns="http://www.w3.org/2000/svg">
  <g clip-path="url(#clip0_546_25517)">
    <path
      d="M78.4048 127.983C109.926 127.983 135.478 99.3328 135.478 63.9914C135.478 28.6499 109.926 0 78.4048 0C46.884 0 21.3313 28.6499 21.3313 63.9914C21.3313 99.3328 46.884 127.983 78.4048 127.983Z"
      fill="#F2F2F2" />
    <path d="M0 15.3647C0 38.6473 13.0272 57.4873 29.1264 57.4873L0 15.3647Z" fill="#2F2E41" />
    <path d="M29.1264 57.4873C29.1264 33.9431 43.6641 14.8914 61.6299 14.8914L29.1264 57.4873Z" fill="#237D64" />
    <path d="M10.5531 17.4753C10.5531 39.5913 18.8603 57.4873 29.1264 57.4873L10.5531 17.4753Z" fill="#237D64" />
    <path d="M29.1264 57.4873C29.1264 27.403 45.9297 3.05917 66.6953 3.05917L29.1264 57.4873Z" fill="#2F2E41" />
    <path
      d="M22.999 57.7843C22.999 57.7843 27.1296 57.6416 28.3745 56.6477C29.6193 55.6539 34.7284 54.4671 35.0372 56.0611C35.346 57.6551 41.2447 63.9889 36.5813 64.031C31.9179 64.0732 25.7455 63.2166 24.5031 62.368C23.2606 61.5194 22.999 57.7843 22.999 57.7843Z"
      fill="#A8A8A8" />
    <path opacity="0.2"
      d="M36.6645 63.4761C32.0011 63.5183 25.8288 62.6617 24.5863 61.8131C23.6401 61.1669 23.2631 58.848 23.1369 57.7782C23.0495 57.7824 22.999 57.7842 22.999 57.7842C22.999 57.7842 23.2606 61.5194 24.5031 62.3679C25.7456 63.2165 31.9179 64.0731 36.5813 64.031C37.9275 64.0188 38.3924 63.4818 38.3669 62.6865C38.1799 63.167 37.6665 63.467 36.6645 63.4761Z"
      fill="black" />
    <path
      d="M53.2174 135.175C80.8907 135.175 103.324 131.753 103.324 127.532C103.324 123.311 80.8907 119.889 53.2174 119.889C25.5442 119.889 3.11067 123.311 3.11067 127.532C3.11067 131.753 25.5442 135.175 53.2174 135.175Z"
      fill="#253D4E" />
    <path opacity="0.1"
      d="M53.2174 133.949C76.4511 133.949 95.2857 131.076 95.2857 127.532C95.2857 123.988 76.4511 121.115 53.2174 121.115C29.9838 121.115 11.1492 123.988 11.1492 127.532C11.1492 131.076 29.9838 133.949 53.2174 133.949Z"
      fill="black" />
    <path
      d="M224.17 210C266.05 210 300 204.821 300 198.433C300 192.045 266.05 186.867 224.17 186.867C182.29 186.867 148.34 192.045 148.34 198.433C148.34 204.821 182.29 210 224.17 210Z"
      fill="#253D4E" />
    <path
      d="M83.2279 200.875C108.385 200.875 128.78 197.764 128.78 193.927C128.78 190.09 108.385 186.979 83.2279 186.979C58.0704 186.979 37.6763 190.09 37.6763 193.927C37.6763 197.764 58.0704 200.875 83.2279 200.875Z"
      fill="#253D4E" />
    <path d="M123.956 188.069C148.072 194.979 194.427 179.056 199.518 161.03" stroke="#2F2E41" stroke-width="2"
      stroke-miterlimit="10" />
    <path
      d="M82.96 77.8111C82.96 77.8111 117.794 66.9957 119.937 101.845C122.081 136.695 91.2665 146.609 115.382 153.519"
      stroke="#2F2E41" stroke-width="2" stroke-miterlimit="10" />
    <path
      d="M49.306 161.416C49.306 161.416 59.7754 158.165 60.4197 168.639C61.064 179.114 51.8025 182.093 59.0506 184.17"
      stroke="#2F2E41" stroke-width="2" stroke-miterlimit="10" />
    <path
      d="M208.654 169.214L206.544 184.324C206.544 184.324 196.152 190.514 203.459 190.696C210.765 190.878 245.187 190.696 245.187 190.696C245.187 190.696 251.845 190.696 241.291 184.142L239.18 168.303L208.654 169.214Z"
      fill="#2F2E41" />
    <path opacity="0.1"
      d="M201.989 190.532C203.648 188.876 206.544 187.151 206.544 187.151L208.654 172.041L239.18 172.073L241.291 186.969C243.752 188.497 245.276 189.669 246.168 190.568C247.524 190.221 249.005 188.932 241.291 184.142L239.18 168.303L208.654 169.214L206.544 184.324C206.544 184.324 197.812 189.526 201.989 190.532Z"
      fill="black" />
    <path
      d="M287.683 63.8979H159.827C157.156 63.8979 154.992 66.3251 154.992 69.3193V165.886C154.992 168.88 157.156 171.307 159.827 171.307H287.683C290.353 171.307 292.518 168.88 292.518 165.886V69.3193C292.518 66.3251 290.353 63.8979 287.683 63.8979Z"
      fill="#2F2E41" />
    <path d="M287.891 69.6324H159.619V150.098H287.891V69.6324Z" fill="#253D4E" />
    <path
      d="M223.755 67.9939C224.203 67.9939 224.567 67.5864 224.567 67.0837C224.567 66.581 224.203 66.1734 223.755 66.1734C223.306 66.1734 222.943 66.581 222.943 67.0837C222.943 67.5864 223.306 67.9939 223.755 67.9939Z"
      fill="#F2F2F2" />
    <path
      d="M292.518 156.47V165.886C292.518 166.598 292.393 167.303 292.15 167.961C291.907 168.618 291.551 169.216 291.102 169.72C290.653 170.223 290.12 170.622 289.533 170.895C288.946 171.167 288.318 171.307 287.683 171.307H159.827C159.192 171.307 158.563 171.167 157.976 170.895C157.39 170.622 156.857 170.223 156.408 169.72C155.959 169.216 155.602 168.618 155.359 167.961C155.116 167.303 154.991 166.598 154.992 165.886V156.47H292.518Z"
      fill="#2F2E41" />
    <path d="M259.638 200.526V202.347H172.284V200.89L172.404 200.526L174.557 193.972H257.852L259.638 200.526Z"
      fill="#2F2E41" />
    <path
      d="M293.255 198.744C293.096 199.507 292.495 200.312 291.138 201.072C286.267 203.803 276.362 200.344 276.362 200.344C276.362 200.344 268.731 198.888 268.731 195.065C268.945 194.9 269.169 194.751 269.4 194.619C271.448 193.404 278.238 190.406 290.278 194.746C291.165 195.058 291.957 195.64 292.567 196.427C293.054 197.068 293.437 197.88 293.255 198.744Z"
      fill="#2F2E41" />
    <path opacity="0.1"
      d="M293.255 198.744C287.293 201.305 281.979 201.497 276.525 197.249C273.774 195.108 271.275 194.579 269.4 194.619C271.448 193.404 278.238 190.406 290.278 194.746C291.165 195.058 291.957 195.64 292.567 196.427C293.054 197.068 293.437 197.88 293.255 198.744Z"
      fill="black" />
    <path
      d="M285.78 197.249C286.945 197.249 287.89 196.923 287.89 196.521C287.89 196.119 286.945 195.793 285.78 195.793C284.614 195.793 283.669 196.119 283.669 196.521C283.669 196.923 284.614 197.249 285.78 197.249Z"
      fill="#F2F2F2" />
    <path
      d="M223.755 167.393C225.459 167.393 226.84 165.845 226.84 163.934C226.84 162.024 225.459 160.475 223.755 160.475C222.051 160.475 220.67 162.024 220.67 163.934C220.67 165.845 222.051 167.393 223.755 167.393Z"
      fill="#F2F2F2" />
    <path opacity="0.1" d="M259.638 200.526V202.347H172.284V200.89L172.404 200.526H259.638Z" fill="black" />
    <path d="M84.8356 47.7682H29.1019V120.472H84.8356V47.7682Z" fill="#2F2E41" />
    <path d="M90.4626 40.558H23.4749V66.3948H90.4626V40.558Z" fill="#253D4E" />
    <path d="M90.4626 71.2018H23.4749V97.0387H90.4626V71.2018Z" fill="#253D4E" />
    <path d="M90.4626 101.846H23.4749V127.682H90.4626V101.846Z" fill="#253D4E" />
    <path opacity="0.4" d="M77.065 45.0644H72.7778V49.8712H77.065V45.0644Z" fill="#237D64" />
    <path opacity="0.8" d="M83.2279 45.0644H78.9407V49.8712H83.2279V45.0644Z" fill="#237D64" />
    <path d="M89.3908 45.0644H85.1036V49.8712H89.3908V45.0644Z" fill="#237D64" />
    <path opacity="0.4" d="M77.065 75.4077H72.7778V80.2146H77.065V75.4077Z" fill="#237D64" />
    <path opacity="0.8" d="M83.2279 75.4077H78.9407V80.2146H83.2279V75.4077Z" fill="#237D64" />
    <path d="M89.3908 75.4077H85.1036V80.2146H89.3908V75.4077Z" fill="#237D64" />
    <path opacity="0.4" d="M77.065 105.751H72.7778V110.558H77.065V105.751Z" fill="#237D64" />
    <path opacity="0.8" d="M83.2279 105.751H78.9407V110.558H83.2279V105.751Z" fill="#237D64" />
    <path d="M89.3908 105.751H85.1036V110.558H89.3908V105.751Z" fill="#237D64" />
    <path
      d="M84.8356 185.365C96.5265 185.365 106.004 174.739 106.004 161.631C106.004 148.523 96.5265 137.897 84.8356 137.897C73.1448 137.897 63.6675 148.523 63.6675 161.631C63.6675 174.739 73.1448 185.365 84.8356 185.365Z"
      fill="#2F2E41" />
    <path d="M81.6202 180.258H75.1894V193.176H81.6202V180.258Z" fill="#2F2E41" />
    <path d="M94.4818 180.258H88.051V193.176H94.4818V180.258Z" fill="#2F2E41" />
    <path
      d="M80.5484 195.579C83.5081 195.579 85.9074 194.571 85.9074 193.326C85.9074 192.082 83.5081 191.073 80.5484 191.073C77.5887 191.073 75.1894 192.082 75.1894 193.326C75.1894 194.571 77.5887 195.579 80.5484 195.579Z"
      fill="#2F2E41" />
    <path
      d="M93.41 195.279C96.3697 195.279 98.769 194.27 98.769 193.026C98.769 191.781 96.3697 190.772 93.41 190.772C90.4503 190.772 88.051 191.781 88.051 193.026C88.051 194.27 90.4503 195.279 93.41 195.279Z"
      fill="#2F2E41" />
    <path
      d="M85.3715 163.734C89.3671 163.734 92.6062 160.102 92.6062 155.622C92.6062 151.142 89.3671 147.511 85.3715 147.511C81.3759 147.511 78.1368 151.142 78.1368 155.622C78.1368 160.102 81.3759 163.734 85.3715 163.734Z"
      fill="white" />
    <path
      d="M85.3715 158.326C86.7034 158.326 87.7831 157.116 87.7831 155.622C87.7831 154.129 86.7034 152.919 85.3715 152.919C84.0397 152.919 82.96 154.129 82.96 155.622C82.96 157.116 84.0397 158.326 85.3715 158.326Z"
      fill="#253D4E" />
    <path
      d="M64.3018 139.559C62.5926 130.976 68.0563 122.304 76.5054 120.189C84.9544 118.074 93.1894 123.316 94.8986 131.899C96.6078 140.481 91.0083 143.647 82.5593 145.762C74.1102 147.877 66.0111 148.141 64.3018 139.559Z"
      fill="#237D64" />
    <path
      d="M104.689 156.897C110.063 154.318 113.834 150.694 113.112 148.803C112.39 146.911 107.448 147.469 102.074 150.047C96.7006 152.626 92.9295 156.25 93.6516 158.142C94.3737 160.033 99.3154 159.476 104.689 156.897Z"
      fill="#2F2E41" />
    <path
      d="M65.0325 172.82C70.4064 170.241 74.1775 166.617 73.4554 164.726C72.7334 162.834 67.7916 163.391 62.4177 165.97C57.0439 168.549 53.2728 172.173 53.9949 174.064C54.7169 175.956 59.6587 175.399 65.0325 172.82Z"
      fill="#2F2E41" />
    <path
      d="M97.1613 168.541C97.1613 170.864 91.8268 175.451 85.9074 175.451C79.988 175.451 74.3855 171.164 74.3855 168.841C74.3855 166.518 79.988 167.038 85.9074 167.038C91.8268 167.038 97.1613 166.218 97.1613 168.541Z"
      fill="white" />
  </g>
  <defs>
    <clipPath id="clip0_546_25517">
      <rect width="300" height="210" fill="white" />
    </clipPath>
  </defs>
</svg>