<svg width="300" height="210" fill="none" xmlns="http://www.w3.org/2000/svg">
  <g clip-path="url(#prefix__clip0_546_25517)">
    <path
      d="M78.405 127.983c31.521 0 57.073-28.65 57.073-63.992C135.478 28.65 109.926 0 78.405 0S21.33 28.65 21.33 63.991c0 35.342 25.553 63.992 57.074 63.992z"
      fill="#F2F2F2" />
    <path d="M0 15.365c0 23.282 13.027 42.122 29.126 42.122L0 15.365z" fill="#2F2E41" />
    <path
      d="M29.126 57.487c0-23.544 14.538-42.596 32.504-42.596L29.126 57.487zM10.553 17.475c0 22.116 8.307 40.012 18.573 40.012L10.553 17.475z"
      fill="#237D64" />
    <path d="M29.126 57.487c0-30.084 16.804-54.428 37.57-54.428l-37.57 54.428z" fill="#2F2E41" />
    <path
      d="M22.999 57.784s4.13-.142 5.376-1.136c1.244-.994 6.353-2.18 6.662-.587.309 1.594 6.208 7.928 1.544 7.97-4.663.042-10.836-.814-12.078-1.663C23.261 61.519 23 57.784 23 57.784z"
      fill="#A8A8A8" />
    <path opacity=".2"
      d="M36.664 63.476c-4.663.042-10.835-.814-12.078-1.663-.946-.646-1.323-2.965-1.45-4.035l-.137.006s.262 3.735 1.504 4.584c1.243.849 7.415 1.705 12.078 1.663 1.346-.012 1.811-.55 1.786-1.345-.187.481-.7.781-1.703.79z"
      fill="#000" />
    <path
      d="M53.217 135.175c27.674 0 50.107-3.422 50.107-7.643s-22.433-7.643-50.107-7.643c-27.673 0-50.106 3.422-50.106 7.643s22.433 7.643 50.106 7.643z"
      fill="#253D4E" />
    <path opacity=".1"
      d="M53.217 133.949c23.234 0 42.069-2.873 42.069-6.417 0-3.544-18.835-6.417-42.069-6.417-23.233 0-42.068 2.873-42.068 6.417 0 3.544 18.835 6.417 42.068 6.417z"
      fill="#000" />
    <path
      d="M224.17 210c41.88 0 75.83-5.179 75.83-11.567s-33.95-11.566-75.83-11.566c-41.88 0-75.83 5.178-75.83 11.566 0 6.388 33.95 11.567 75.83 11.567zM83.228 200.875c25.157 0 45.552-3.111 45.552-6.948s-20.395-6.948-45.552-6.948c-25.158 0-45.552 3.111-45.552 6.948s20.394 6.948 45.552 6.948z"
      fill="#253D4E" />
    <path
      d="M123.956 188.069c24.116 6.91 70.471-9.013 75.562-27.039M82.96 77.811s34.834-10.815 36.977 24.034c2.144 34.85-28.67 44.764-4.555 51.674M49.306 161.416s10.47-3.251 11.114 7.223c.644 10.475-8.617 13.454-1.37 15.531"
      stroke="#2F2E41" stroke-width="2" stroke-miterlimit="10" />
    <path
      d="M208.654 169.214l-2.11 15.11s-10.392 6.19-3.085 6.372c7.306.182 41.728 0 41.728 0s6.658 0-3.896-6.554l-2.111-15.839-30.526.911z"
      fill="#2F2E41" />
    <path opacity=".1"
      d="M201.989 190.532c1.659-1.656 4.555-3.381 4.555-3.381l2.11-15.11 30.526.032 2.111 14.896c2.461 1.528 3.985 2.7 4.877 3.599 1.356-.347 2.837-1.636-4.877-6.426l-2.111-15.839-30.526.911-2.11 15.11s-8.732 5.202-4.555 6.208z"
      fill="#000" />
    <path
      d="M287.683 63.898H159.827c-2.671 0-4.835 2.427-4.835 5.421v96.567c0 2.994 2.164 5.421 4.835 5.421h127.856c2.67 0 4.835-2.427 4.835-5.421V69.319c0-2.994-2.165-5.421-4.835-5.421z"
      fill="#2F2E41" />
    <path d="M287.891 69.632H159.619v80.466h128.272V69.632z" fill="#253D4E" />
    <path
      d="M223.755 67.994c.448 0 .812-.408.812-.91 0-.503-.364-.91-.812-.91-.449 0-.812.407-.812.91 0 .502.363.91.812.91z"
      fill="#F2F2F2" />
    <path
      d="M292.518 156.47v9.416c0 .712-.125 1.417-.368 2.075a5.522 5.522 0 01-1.048 1.759 4.85 4.85 0 01-1.569 1.175 4.391 4.391 0 01-1.85.412H159.827c-.635 0-1.264-.14-1.851-.412a4.857 4.857 0 01-1.568-1.175 5.524 5.524 0 01-1.049-1.759 5.975 5.975 0 01-.367-2.075v-9.416h137.526zM259.638 200.526v1.821h-87.354v-1.457l.12-.364 2.153-6.554h83.295l1.786 6.554zM293.255 198.744c-.159.763-.76 1.568-2.117 2.328-4.871 2.731-14.776-.728-14.776-.728s-7.631-1.456-7.631-5.279c.214-.165.438-.314.669-.446 2.048-1.215 8.838-4.213 20.878.127a5.018 5.018 0 012.289 1.681c.487.641.87 1.453.688 2.317z"
      fill="#2F2E41" />
    <path opacity=".1"
      d="M293.255 198.744c-5.962 2.561-11.276 2.753-16.73-1.495-2.751-2.141-5.25-2.67-7.125-2.63 2.048-1.215 8.838-4.213 20.878.127a5.018 5.018 0 012.289 1.681c.487.641.87 1.453.688 2.317z"
      fill="#000" />
    <path
      d="M285.78 197.249c1.165 0 2.11-.326 2.11-.728 0-.402-.945-.728-2.11-.728-1.166 0-2.111.326-2.111.728 0 .402.945.728 2.111.728zM223.755 167.393c1.704 0 3.085-1.548 3.085-3.459 0-1.91-1.381-3.459-3.085-3.459s-3.085 1.549-3.085 3.459c0 1.911 1.381 3.459 3.085 3.459z"
      fill="#F2F2F2" />
    <path opacity=".1" d="M259.638 200.526v1.821h-87.354v-1.457l.12-.364h87.234z" fill="#000" />
    <path d="M84.836 47.768H29.102v72.704h55.734V47.768z" fill="#2F2E41" />
    <path
      d="M90.463 40.558H23.475v25.837h66.988V40.558zM90.463 71.202H23.475v25.837h66.988V71.202zM90.463 101.846H23.475v25.836h66.988v-25.836z"
      fill="#253D4E" />
    <path opacity=".4" d="M77.065 45.064h-4.287v4.807h4.287v-4.807z" fill="#237D64" />
    <path opacity=".8" d="M83.228 45.064H78.94v4.807h4.287v-4.807z" fill="#237D64" />
    <path d="M89.39 45.064h-4.286v4.807h4.287v-4.807z" fill="#237D64" />
    <path opacity=".4" d="M77.065 75.408h-4.287v4.807h4.287v-4.807z" fill="#237D64" />
    <path opacity=".8" d="M83.228 75.408H78.94v4.807h4.287v-4.807z" fill="#237D64" />
    <path d="M89.39 75.408h-4.286v4.807h4.287v-4.807z" fill="#237D64" />
    <path opacity=".4" d="M77.065 105.751h-4.287v4.807h4.287v-4.807z" fill="#237D64" />
    <path opacity=".8" d="M83.228 105.751H78.94v4.807h4.287v-4.807z" fill="#237D64" />
    <path d="M89.39 105.751h-4.286v4.807h4.287v-4.807z" fill="#237D64" />
    <path
      d="M84.836 185.365c11.69 0 21.168-10.626 21.168-23.734 0-13.108-9.478-23.734-21.168-23.734-11.691 0-21.169 10.626-21.169 23.734 0 13.108 9.478 23.734 21.169 23.734z"
      fill="#2F2E41" />
    <path d="M81.62 180.258h-6.43v12.918h6.43v-12.918zM94.482 180.258H88.05v12.918h6.43v-12.918z" fill="#2F2E41" />
    <path
      d="M80.548 195.579c2.96 0 5.36-1.008 5.36-2.253 0-1.244-2.4-2.253-5.36-2.253-2.96 0-5.359 1.009-5.359 2.253 0 1.245 2.4 2.253 5.36 2.253zM93.41 195.279c2.96 0 5.359-1.009 5.359-2.253 0-1.245-2.4-2.254-5.359-2.254-2.96 0-5.359 1.009-5.359 2.254 0 1.244 2.4 2.253 5.359 2.253z"
      fill="#2F2E41" />
    <path
      d="M85.371 163.734c3.996 0 7.235-3.632 7.235-8.112s-3.239-8.111-7.234-8.111c-3.996 0-7.235 3.631-7.235 8.111s3.239 8.112 7.234 8.112z"
      fill="#fff" />
    <path
      d="M85.371 158.326c1.332 0 2.412-1.21 2.412-2.704 0-1.493-1.08-2.703-2.412-2.703-1.331 0-2.411 1.21-2.411 2.703 0 1.494 1.08 2.704 2.412 2.704z"
      fill="#253D4E" />
    <path
      d="M64.302 139.559c-1.71-8.583 3.754-17.255 12.203-19.37 8.45-2.115 16.684 3.127 18.394 11.71 1.709 8.582-3.89 11.748-12.34 13.863-8.449 2.115-16.548 2.379-18.257-6.203z"
      fill="#237D64" />
    <path
      d="M104.689 156.897c5.374-2.579 9.145-6.203 8.423-8.094-.722-1.892-5.664-1.334-11.038 1.244-5.373 2.579-9.144 6.203-8.422 8.095.722 1.891 5.663 1.334 11.037-1.245zM65.032 172.82c5.374-2.579 9.145-6.203 8.423-8.094-.722-1.892-5.663-1.335-11.037 1.244-5.374 2.579-9.145 6.203-8.423 8.094.722 1.892 5.664 1.335 11.038-1.244z"
      fill="#2F2E41" />
    <path
      d="M97.161 168.541c0 2.323-5.334 6.91-11.254 6.91-5.919 0-11.522-4.287-11.522-6.61 0-2.323 5.603-1.803 11.522-1.803 5.92 0 11.254-.82 11.254 1.503z"
      fill="#fff" />
  </g>
  <defs>
    <clipPath id="prefix__clip0_546_25517">
      <path fill="#fff" d="M0 0h300v210H0z" />
    </clipPath>
  </defs>
</svg>