<svg width="52" height="32" viewBox="0 0 52 32" fill="none" xmlns="http://www.w3.org/2000/svg">
  <path
    d="M21.4321 28.2255C23.0917 26.6784 23.3473 24.2552 22.0029 22.813C20.6585 21.3708 18.2233 21.4558 16.5636 23.0029C14.904 24.55 14.6484 26.9733 15.9928 28.4155C17.3372 29.8577 19.7724 29.7726 21.4321 28.2255Z"
    fill="url(#paint0_linear_92_1183)" />
  <path
    d="M43.3921 28.2271C45.0517 26.68 45.3073 24.2567 43.9629 22.8146C42.6185 21.3724 40.1832 21.4574 38.5236 23.0045C36.864 24.5516 36.6084 26.9749 37.9528 28.4171C39.2972 29.8593 41.7324 29.7742 43.3921 28.2271Z"
    fill="url(#paint1_linear_92_1183)" />
  <path
    d="M4.01768 9.29058C4.01768 8.33281 3.24126 7.5564 2.2835 7.5564C1.32574 7.5564 0.549316 8.33281 0.549316 9.29058C0.549316 10.2483 1.32574 11.0248 2.2835 11.0248C3.24126 11.0248 4.01768 10.2483 4.01768 9.29058Z"
    fill="url(#paint2_linear_92_1183)" />
  <path
    d="M35.1893 25.2517C35.8058 22.2048 38.6841 19.7835 41.7777 19.7835C44.7565 19.7835 46.9035 22.0291 46.8446 24.9165C50.0662 25.0008 50.963 20.7585 50.963 20.7585C51.2342 19.5723 51.6394 17.2597 51.9786 14.9898C52.0898 14.289 52.0044 13.5711 51.7318 12.9159C50.8897 10.9501 49.872 9.06419 48.691 7.28121C47.5739 5.61457 45.7 4.62738 43.5611 4.59184C42.2855 4.57152 41.0332 4.55933 40.0877 4.55933L40.0796 4.55121C39.9577 2.51183 38.4708 0.949804 36.3837 0.762929C35.0258 0.64207 29.6471 0.553711 27.0653 0.553711C26.0396 0.553711 24.5679 0.567929 23.079 0.592304V0.586211H23.0668H5.16543C4.93759 0.586077 4.71196 0.630855 4.50143 0.717984C4.29091 0.805113 4.09963 0.932884 3.93852 1.09399C3.77742 1.2551 3.64964 1.44638 3.56252 1.6569C3.47539 1.86743 3.43061 2.09306 3.43074 2.3209V2.32902C3.43074 2.78694 3.61265 3.22609 3.93644 3.54989C4.26023 3.87368 4.69939 4.05559 5.1573 4.05559H8.76582C9.20033 4.08762 9.60667 4.28275 9.90333 4.60183C10.2 4.92091 10.3651 5.34036 10.3654 5.77605V5.78519C10.3661 6.01325 10.3218 6.2392 10.235 6.45012C10.1483 6.66104 10.0208 6.85278 9.85987 7.01437C9.69893 7.17596 9.50772 7.30423 9.29716 7.39185C9.0866 7.47946 8.86083 7.52469 8.63277 7.52496H6.7823C6.3225 7.52496 5.88154 7.70761 5.55641 8.03274C5.23129 8.35787 5.04863 8.79883 5.04863 9.25863C5.0485 9.48638 5.09324 9.71193 5.18031 9.92239C5.26737 10.1328 5.39505 10.3241 5.55605 10.4852C5.71705 10.6463 5.90822 10.7741 6.11862 10.8613C6.32903 10.9484 6.55455 10.9933 6.7823 10.9933H8.63277C9.09284 10.9933 9.53406 11.1761 9.85938 11.5014C10.1847 11.8267 10.3675 12.2679 10.3675 12.728C10.3675 13.1881 10.1847 13.6293 9.85938 13.9546C9.53406 14.2799 9.09284 14.4627 8.63277 14.4627H1.71027C1.25038 14.4627 0.809311 14.6453 0.484023 14.9704C0.158735 15.2955 -0.0241448 15.7365 -0.0244141 16.1964C-0.0244141 16.6564 0.158347 17.0977 0.483664 17.423C0.808981 17.7483 1.25021 17.931 1.71027 17.931H8.63277C9.09284 17.931 9.53406 18.1138 9.85938 18.4391C10.1847 18.7644 10.3675 19.2057 10.3675 19.6657C10.3669 20.1255 10.1839 20.5662 9.85866 20.891C9.5334 21.2159 9.09249 21.3984 8.63277 21.3984H6.49183C6.03204 21.3984 5.59107 21.581 5.26594 21.9062C4.94082 22.2313 4.75816 22.6723 4.75816 23.1321C4.75816 23.592 4.94078 24.033 5.26588 24.3583C5.59098 24.6836 6.03194 24.8665 6.49183 24.8667L13.3229 24.8617L13.8907 23.4469C15.0536 21.3019 17.3671 19.7825 19.8168 19.7825C22.9114 19.7825 25.1093 22.2058 24.8675 25.2547H35.1883L35.1893 25.2517ZM17.9836 8.33238H15.6558C15.6536 8.33256 15.6515 8.33345 15.6499 8.33491C15.6482 8.33638 15.6471 8.33834 15.6467 8.3405L15.4324 9.86394C15.4321 9.86516 15.432 9.86644 15.4323 9.86768C15.4326 9.86891 15.4331 9.87007 15.4339 9.87105C15.4347 9.87204 15.4357 9.87283 15.4368 9.87336C15.438 9.87389 15.4392 9.87414 15.4405 9.8741H17.1732C17.2582 9.87168 17.3427 9.88828 17.4205 9.92267C17.4984 9.95706 17.5675 10.0084 17.623 10.0729C17.6785 10.1374 17.7188 10.2135 17.7412 10.2956C17.7635 10.3777 17.7672 10.4637 17.7521 10.5475C17.7224 10.7315 17.6295 10.8994 17.4893 11.0223C17.3492 11.1452 17.1706 11.2154 16.9843 11.2208H15.2496C15.2475 11.2208 15.2454 11.2214 15.2437 11.2227C15.2421 11.224 15.2409 11.2259 15.2404 11.2279L14.9296 13.441C14.9 13.625 14.807 13.7929 14.6669 13.9158C14.5268 14.0387 14.3482 14.1089 14.1618 14.1143C14.0768 14.1168 13.9923 14.1002 13.9145 14.0658C13.8368 14.0314 13.7676 13.9801 13.7122 13.9155C13.6569 13.851 13.6166 13.7749 13.5944 13.6928C13.5722 13.6107 13.5686 13.5246 13.5839 13.441L14.3903 7.70066C14.4223 7.50632 14.5208 7.32912 14.6691 7.19943C14.8173 7.06973 15.006 6.9956 15.2028 6.98973H18.1715C18.2565 6.98727 18.341 7.00385 18.4188 7.03825C18.4966 7.07265 18.5657 7.124 18.6211 7.18854C18.6765 7.25308 18.7168 7.32919 18.739 7.41129C18.7612 7.49339 18.7647 7.57942 18.7494 7.66308C18.7193 7.84619 18.6264 8.01312 18.4867 8.13524C18.347 8.25736 18.1691 8.32706 17.9836 8.33238ZM24.2053 7.44676C24.4472 7.66131 24.6173 7.94491 24.6928 8.25926C24.7773 8.61536 24.7911 8.98456 24.7335 9.34597C24.6629 9.90834 24.4327 10.4387 24.0703 10.8745C23.8489 11.1362 23.5678 11.3407 23.2507 11.4707C23.2492 11.4722 23.2484 11.4742 23.2484 11.4762C23.2484 11.4783 23.2492 11.4803 23.2507 11.4818L23.8275 13.1464C23.9829 13.5933 23.5838 14.1143 23.0871 14.1143H23.0546C22.9342 14.1179 22.8157 14.083 22.7163 14.0147C22.617 13.9464 22.542 13.8483 22.5021 13.7345L21.8044 11.7032C21.8034 11.7017 21.8021 11.7004 21.8005 11.6996C21.7989 11.6987 21.7971 11.6982 21.7953 11.6982H20.3125C20.3104 11.6983 20.3084 11.699 20.3068 11.7003C20.3051 11.7016 20.3039 11.7033 20.3033 11.7053L20.0596 13.44C20.0299 13.624 19.937 13.7919 19.7968 13.9148C19.6567 14.0377 19.4781 14.1079 19.2918 14.1133C19.2067 14.1158 19.1222 14.0992 19.0445 14.0648C18.9667 14.0304 18.8976 13.979 18.8422 13.9145C18.7868 13.85 18.7465 13.7739 18.7243 13.6917C18.7021 13.6096 18.6985 13.5236 18.7139 13.44L19.5203 7.69965C19.5522 7.5053 19.6507 7.32811 19.799 7.19841C19.9472 7.06871 20.1359 6.99458 20.3328 6.98871H22.6281C22.6281 6.98871 23.6356 6.95722 24.2053 7.44676ZM30.5225 7.61535C30.4949 7.78724 30.4082 7.9441 30.2773 8.05887C30.1464 8.17365 29.9795 8.23913 29.8055 8.24402H27.1354C27.1334 8.24413 27.1314 8.24487 27.1297 8.24615C27.1281 8.24742 27.1269 8.24916 27.1263 8.25113L26.914 9.75832C26.9137 9.75954 26.9137 9.76082 26.9139 9.76205C26.9142 9.76329 26.9147 9.76444 26.9155 9.76543C26.9163 9.76641 26.9173 9.7672 26.9185 9.76773C26.9196 9.76826 26.9209 9.76851 26.9221 9.76847H28.996C29.0755 9.76612 29.1544 9.78155 29.2271 9.81364C29.2998 9.84572 29.3644 9.89364 29.4162 9.9539C29.468 10.0142 29.5057 10.0852 29.5264 10.1619C29.5472 10.2386 29.5506 10.319 29.5364 10.3971C29.5088 10.569 29.422 10.7259 29.2911 10.8407C29.1602 10.9554 28.9934 11.0209 28.8193 11.0258H26.7444C26.7423 11.0259 26.7404 11.0267 26.7387 11.0279C26.7371 11.0292 26.7359 11.031 26.7353 11.0329L26.4803 12.8468C26.4803 12.8494 26.4813 12.8518 26.483 12.8537C26.4846 12.8556 26.487 12.8567 26.4895 12.857H29.1575C29.237 12.8546 29.3159 12.8701 29.3886 12.9022C29.4613 12.9342 29.5259 12.9822 29.5777 13.0424C29.6295 13.1027 29.6671 13.1737 29.6879 13.2504C29.7087 13.3271 29.7121 13.4075 29.6978 13.4857C29.6702 13.6575 29.5835 13.8144 29.4526 13.9292C29.3217 14.044 29.1548 14.1094 28.9808 14.1143H25.6699C25.5805 14.1156 25.492 14.0972 25.4106 14.0604C25.3292 14.0236 25.2568 13.9694 25.1987 13.9016C25.1405 13.8338 25.098 13.754 25.0741 13.6679C25.0503 13.5818 25.0456 13.4915 25.0605 13.4034L25.8618 7.70371C25.8938 7.50936 25.9923 7.33217 26.1405 7.20247C26.2888 7.07278 26.4775 6.99864 26.6743 6.99277H29.9843C30.0629 6.99091 30.141 7.00646 30.2129 7.03833C30.2848 7.0702 30.3488 7.11758 30.4002 7.17709C30.4517 7.2366 30.4893 7.30675 30.5105 7.38252C30.5316 7.45829 30.5357 7.5378 30.5225 7.61535ZM36.0689 7.61535C36.0413 7.78724 35.9545 7.9441 35.8236 8.05887C35.6927 8.17365 35.5258 8.23913 35.3518 8.24402H32.6818C32.6797 8.24413 32.6777 8.24487 32.6761 8.24615C32.6744 8.24742 32.6732 8.24916 32.6726 8.25113L32.4614 9.75832C32.461 9.75954 32.461 9.76082 32.4613 9.76205C32.4615 9.76329 32.4621 9.76444 32.4629 9.76543C32.4637 9.76641 32.4647 9.7672 32.4658 9.76773C32.467 9.76826 32.4682 9.76851 32.4695 9.76847H34.5434C34.6228 9.76612 34.7018 9.78155 34.7744 9.81364C34.8471 9.84572 34.9117 9.89364 34.9635 9.9539C35.0153 10.0142 35.053 10.0852 35.0738 10.1619C35.0946 10.2386 35.098 10.319 35.0837 10.3971C35.0561 10.569 34.9694 10.7259 34.8385 10.8407C34.7076 10.9554 34.5407 11.0209 34.3667 11.0258H32.2907C32.2887 11.0259 32.2867 11.0267 32.285 11.0279C32.2834 11.0292 32.2822 11.031 32.2816 11.0329L32.0267 12.8468C32.0267 12.8494 32.0276 12.8518 32.0293 12.8537C32.031 12.8556 32.0333 12.8567 32.0358 12.857H34.7039C34.7833 12.8546 34.8622 12.8701 34.9349 12.9022C35.0076 12.9342 35.0722 12.9822 35.124 13.0424C35.1758 13.1027 35.2135 13.1737 35.2343 13.2504C35.255 13.3271 35.2584 13.4075 35.2442 13.4857C35.2166 13.6575 35.1298 13.8144 34.9989 13.9292C34.868 14.044 34.7012 14.1094 34.5271 14.1143H31.2162C31.1269 14.1156 31.0384 14.0972 30.9569 14.0604C30.8755 14.0236 30.8031 13.9694 30.745 13.9016C30.6869 13.8338 30.6443 13.754 30.6205 13.6679C30.5966 13.5818 30.5919 13.4915 30.6068 13.4034L31.4082 7.70371C31.4401 7.50936 31.5386 7.33217 31.6869 7.20247C31.8351 7.07278 32.0238 6.99864 32.2207 6.99277H35.5306C35.6092 6.99091 35.6873 7.00646 35.7592 7.03833C35.8311 7.0702 35.8951 7.11758 35.9466 7.17709C35.998 7.2366 36.0357 7.30675 36.0568 7.38252C36.0779 7.45829 36.0821 7.5378 36.0689 7.61535ZM39.9282 6.96433C40.8352 6.96433 42.0092 6.97652 43.1874 6.99582C44.6153 7.01918 45.8646 7.67527 46.6141 8.79449C47.4147 10.0015 48.1343 11.2602 48.7682 12.5625C49.1034 13.245 48.4869 14.1336 47.6795 14.1336H39.0213L39.9282 6.96433Z"
    fill="url(#paint3_linear_92_1183)" />
  <path
    d="M22.0847 10.4419H20.48L20.7847 8.24405H22.3883C22.3883 8.24405 23.5654 8.16787 23.3725 9.34296C23.3776 9.34296 23.2425 10.4419 22.0847 10.4419Z"
    fill="url(#paint4_linear_92_1183)" />
  <defs>
    <linearGradient id="paint0_linear_92_1183" x1="16.5636" y1="23.0029" x2="21.4321" y2="28.2255"
      gradientUnits="userSpaceOnUse">
      <stop stop-color="#00B59C" />
      <stop offset="1" stop-color="#9CFFAC" />
    </linearGradient>
    <linearGradient id="paint1_linear_92_1183" x1="38.5236" y1="23.0045" x2="43.392" y2="28.2271"
      gradientUnits="userSpaceOnUse">
      <stop stop-color="#00B59C" />
      <stop offset="1" stop-color="#9CFFAC" />
    </linearGradient>
    <linearGradient id="paint2_linear_92_1183" x1="2.2835" y1="7.5564" x2="2.2835" y2="11.0248"
      gradientUnits="userSpaceOnUse">
      <stop stop-color="#00B59C" />
      <stop offset="1" stop-color="#9CFFAC" />
    </linearGradient>
    <linearGradient id="paint3_linear_92_1183" x1="26.0008" y1="0.553711" x2="26.0008" y2="25.2547"
      gradientUnits="userSpaceOnUse">
      <stop stop-color="#00B59C" />
      <stop offset="1" stop-color="#9CFFAC" />
    </linearGradient>
    <linearGradient id="paint4_linear_92_1183" x1="21.9369" y1="8.24304" x2="21.9369" y2="10.4419"
      gradientUnits="userSpaceOnUse">
      <stop stop-color="#00B59C" />
      <stop offset="1" stop-color="#9CFFAC" />
    </linearGradient>
  </defs>
</svg>