<svg width="36" height="38" viewBox="0 0 36 38" fill="none" xmlns="http://www.w3.org/2000/svg">
  <path
    d="M13.2842 20.1273C12.6367 20.3787 11.9055 20.1045 11.5856 19.4875L5.64415 8.04647C4.95098 6.69061 5.47657 5.03768 6.83243 4.34452C6.91622 4.30643 6.99239 4.26834 7.07618 4.23026C8.60723 3.61327 10.2906 4.51209 10.7172 6.066L10.7248 6.08885L14.0992 18.5125C14.2744 19.1752 13.924 19.876 13.2842 20.1273Z"
    fill="#F98500" />
  <path
    d="M12.9643 14.3611L11.2809 15.0238C10.9686 15.1381 10.6182 14.9857 10.4888 14.6734C10.3669 14.3611 10.5192 14.0031 10.8315 13.8813L12.6368 13.1729L12.9643 14.3611Z"
    fill="#FA6D00" />
  <path
    d="M13.6192 16.7452L12.172 17.286C11.8597 17.3926 11.5169 17.2479 11.3798 16.9356C11.2579 16.6233 11.4102 16.2653 11.7302 16.1434L13.2993 15.5569L13.6192 16.7452Z"
    fill="#FA6D00" />
  <path
    d="M20.4518 8.93753C19.9415 8.58714 19.6825 7.97015 19.7968 7.35315C20.0786 5.93636 19.1645 4.55765 17.7401 4.26819C17.7249 4.26819 17.702 4.26058 17.6868 4.26058C17.1003 4.16155 16.6128 3.74261 16.43 3.17132C16.3843 3.03421 16.3309 2.8971 16.27 2.76761C15.6225 1.47269 14.0534 0.9471 12.7585 1.59456C11.5321 2.20394 10.9837 3.65882 11.5016 4.92327C11.7682 5.57835 11.8977 6.17249 11.4483 6.80472C10.6104 7.98538 10.8923 9.62308 12.0729 10.4534C12.0806 10.461 12.0958 10.4686 12.1034 10.4762C12.6138 10.8342 12.8575 11.4588 12.7356 12.0682C12.4614 13.485 13.3907 14.8637 14.8151 15.1379C16.0948 15.3817 17.3516 14.658 17.7858 13.4317C19.0807 14.0791 20.6499 13.5459 21.2974 12.2586C21.8763 11.0932 21.5182 9.68401 20.4518 8.93753Z"
    fill="#598C44" />
  <path
    d="M26.3935 11.0324C26.0507 10.5144 26.0431 9.84407 26.3783 9.31848C27.1781 8.11497 26.8429 6.48489 25.6394 5.68509C25.6242 5.67747 25.6089 5.66223 25.5937 5.65462C24.8472 5.18235 24.9005 4.51204 24.8396 3.7427C24.733 2.30306 23.4685 1.22141 22.0289 1.32806C20.6654 1.4347 19.6066 2.56966 19.6066 3.94075C19.6066 4.64915 19.4999 5.24329 18.8525 5.66223C17.6337 6.43919 17.2757 8.06165 18.0603 9.2804C18.0679 9.28801 18.0755 9.30325 18.0831 9.31087C18.4183 9.83645 18.4183 10.5068 18.0679 11.0247C17.2833 12.2359 17.6261 13.8583 18.8372 14.6505C19.9265 15.3589 21.3738 15.1609 22.2269 14.1859C23.1867 15.2675 24.8396 15.3741 25.9212 14.422C26.8962 13.5689 27.0943 12.1216 26.3935 11.0324Z"
    fill="#5F9548" />
  <path
    d="M30.4687 18.3906L23.1562 15.9531L27.1857 3.87223C27.6732 2.41734 29.1586 1.29 30.7049 1.32809C31.6646 1.35094 32.5635 1.53375 33.3176 2.14312C34.5363 3.11812 35.0162 4.7482 34.5211 6.22594L30.4687 18.3906Z"
    fill="#FFB531" />
  <path
    d="M25.5938 12.2969V34.2344H7.3125V12.2969L9.14062 13.5156L10.9688 12.2969L12.7969 13.5156L14.625 12.2969L16.4531 13.5156L18.2812 12.2969L20.1094 13.5156L21.9375 12.2969L23.7656 13.5156L25.5938 12.2969Z"
    fill="#FFB531" />
  <path d="M25.5938 17.3469V34.2342H7.3125V30.5399C14.0232 28.2852 20.673 24.1795 25.5938 17.3469Z" fill="#FCAC1F" />
  <path d="M32.9062 12.2969V34.2344H25.5938V12.2969L27.4219 13.5156L29.25 12.2969L31.0781 13.5156L32.9062 12.2969Z"
    fill="#F98500" />
  <path
    d="M7.42676 36.6719C10.1191 36.6719 12.3018 34.4893 12.3018 31.7969C12.3018 29.1045 10.1191 26.9219 7.42676 26.9219C4.73437 26.9219 2.55176 29.1045 2.55176 31.7969C2.55176 34.4893 4.73437 36.6719 7.42676 36.6719Z"
    fill="#F35244" />
  <path
    d="M17.6719 23.875L18.2812 25.0938C17.5271 25.8479 17.2225 26.9447 17.4814 27.9883L17.6719 28.75H15.2344V27.8207C15.2344 26.1525 16.1789 24.6215 17.6719 23.875Z"
    fill="#5F9548" />
  <path
    d="M14.0992 36.6719C13.3299 36.6719 12.6443 36.1691 12.4234 35.4303L11.0524 30.8523C10.6715 29.5803 11.5094 28.1406 12.9186 28.1406C13.6041 28.1406 14.2363 28.4986 14.5867 29.0852L15.8436 31.1875V34.9275C15.8436 35.8873 15.059 36.6719 14.0992 36.6719Z"
    fill="#FA9F0C" />
  <path
    d="M18.8068 36.6719C19.5762 36.6719 20.2617 36.1691 20.4826 35.4303L21.8537 30.8523C22.2422 29.565 21.3891 28.1406 19.9875 28.1406C19.302 28.1406 18.6697 28.4986 18.3193 29.0852L17.0625 31.1875V34.9275C17.0625 35.8873 17.8471 36.6719 18.8068 36.6719Z"
    fill="#FA9F0C" />
  <path
    d="M16.4531 28.1406C17.4662 28.1406 18.2812 28.9557 18.2812 29.9688V34.8438C18.2812 35.8568 17.4662 36.6719 16.4531 36.6719C15.44 36.6719 14.625 35.8568 14.625 34.8438V29.9688C14.625 28.9557 15.44 28.1406 16.4531 28.1406Z"
    fill="#FFB531" />
  <path
    d="M33.6983 1.6708C32.571 0.764355 31.0247 0.490137 29.5546 0.916699C28.1226 1.33564 27.0485 2.34873 26.6067 3.68174L24.1464 11.0704L23.8569 10.6438L22.8362 11.3218V8.86143L24.5272 7.73408L23.8493 6.721L22.8286 7.39893V4.60342H21.6099V7.39131L20.5968 6.71338L19.9189 7.72646L21.6099 8.85381V11.3142L20.5968 10.6362L19.9189 11.6493L20.8558 12.2739L20.1017 12.7767L18.6087 11.7864C18.5401 11.7407 18.4716 11.7103 18.3954 11.695C18.4411 11.5808 18.5021 11.4665 18.5706 11.3599C19.0429 10.6362 19.0429 9.70693 18.5782 8.97568C18.1517 8.32822 18.1669 7.36084 18.6087 6.71338C18.7991 6.43916 19.5761 5.8831 19.7817 5.60889C20.1855 5.07568 20.2312 4.46631 20.2769 3.93311C20.3073 3.51416 20.3378 3.14854 20.5206 2.8667C21.1071 1.92979 22.3487 1.64795 23.2857 2.23447C23.4837 2.35635 23.6513 2.51631 23.796 2.6915C24.1235 3.10283 24.154 3.51416 24.1921 4.07021C24.2073 4.26064 24.2226 4.46631 24.2454 4.67959L25.4565 4.52725C25.4337 4.34443 25.4185 4.16162 25.4108 3.98643C25.3651 3.32373 25.3118 2.6458 24.7558 1.9374C23.6513 0.53584 21.6251 0.299707 20.2235 1.39658C19.9341 1.6251 19.6827 1.89932 19.4847 2.21162C19.1495 2.74482 19.1038 3.32373 19.0581 3.82646C19.0505 3.94072 19.0429 4.04736 19.0276 4.154C18.6544 3.90264 18.2278 3.72744 17.7784 3.64365C17.4128 3.58271 17.1081 3.32373 16.9939 2.97334C16.7272 2.14307 16.1483 1.45752 15.3714 1.06143C14.6097 0.657715 13.7185 0.581543 12.8958 0.848145C11.6847 1.25186 10.8011 2.38682 10.6944 3.68936C10.6563 4.18447 10.7782 4.61865 10.9001 5.00713C10.3288 4.07021 9.33096 3.47607 8.23408 3.40752L8.25693 0.703418L7.03818 0.695801L7.02295 2.45537L6.2917 0.581543L5.17959 1.04619L5.91084 2.92002L4.70732 1.64033L3.82373 2.47061L5.67471 4.45107C4.66924 5.48701 4.43311 7.04092 5.10342 8.32061L6.36787 10.7581L7.44951 10.1944L6.18506 7.75693C5.64424 6.71338 6.04795 5.42607 7.0915 4.88525C8.13506 4.34443 9.42236 4.74814 9.96319 5.7917C10.0317 5.92881 10.0851 6.06592 10.1308 6.21826L10.1536 6.29443L8.18838 7.06377L8.63018 8.19873L10.4735 7.48271V7.49033C10.3593 7.92451 10.3288 8.37393 10.405 8.82334L9.07959 9.34131L9.52139 10.4763L10.8315 9.96592C11.1362 10.4763 11.6618 10.9485 11.6618 10.9485L9.96319 11.6112L10.1612 12.1063L9.14815 12.7843L7.65518 11.794C7.37334 11.6036 7.0001 11.6798 6.80967 11.9616C6.74111 12.0606 6.71064 12.1825 6.71064 12.2968V25.0936H7.9294V13.4317L8.81299 14.0183C9.01865 14.1554 9.28525 14.1554 9.49092 14.0183L10.9839 13.028L12.4769 14.0183C12.6825 14.1554 12.9491 14.1554 13.1548 14.0183L14.6478 13.028L16.1407 14.0183C16.3464 14.1554 16.613 14.1554 16.8187 14.0183L18.3116 13.028L19.8046 14.0183C20.0103 14.1554 20.2769 14.1554 20.4825 14.0183L21.9755 13.028L23.4685 14.0183C23.6741 14.1554 23.9407 14.1554 24.1464 14.0183L25.03 13.4317V33.6249H22.5925V34.8436H32.9519C33.287 34.8436 33.5612 34.5694 33.5612 34.2343V12.2968C33.5612 12.114 33.4774 11.9464 33.3403 11.8321L35.1456 6.42393C35.6712 4.70244 35.1075 2.80576 33.6983 1.6708ZM17.5728 9.66123C17.6261 9.74502 17.6642 9.83642 17.687 9.93545L17.2681 10.5524L16.3388 8.26728L17.1538 7.06377C16.9405 7.93975 17.0776 8.91475 17.5728 9.66123ZM13.3224 12.4415C13.4823 11.794 13.3528 11.1161 12.9796 10.5677C12.6216 10.0497 12.0503 9.6917 11.7608 9.12803C11.6085 8.83096 11.5476 8.48818 11.5856 8.15303C11.6771 7.40654 12.2407 6.78193 12.3245 6.03545C12.3855 5.48701 12.1646 4.95381 12.0503 4.41299C11.7837 3.21709 12.5378 2.00596 13.8251 1.94502C14.4497 1.92217 15.0438 2.18877 15.4399 2.66865C15.7903 3.10283 15.9503 3.67412 16.3007 4.11592C16.5597 4.44346 16.9101 4.67959 17.3062 4.79385C17.6946 4.9081 18.1517 4.92334 18.4106 5.23564C17.9612 5.55557 17.5956 5.97451 17.3442 6.46963L16.4759 5.89072L15.7903 6.88096L14.7392 4.31396L13.6194 4.771L14.663 7.3456L13.4747 7.11709L13.231 8.30537L15.1886 8.74717L16.1407 10.9866L14.9524 10.7581L14.8077 11.4741C14.8001 11.4817 13.6347 12.213 13.3224 12.4415ZM15.4399 12.1063L16.6968 12.3653L16.7806 12.571L16.453 12.7843L15.4399 12.1063ZM23.3009 12.472L23.7731 12.1521L23.598 12.67L23.3009 12.472ZM26.203 13.4317L27.0866 14.0183C27.2923 14.1554 27.5589 14.1554 27.7646 14.0183L28.6481 13.4317V30.319L26.2106 32.7565V13.4317H26.203ZM32.2968 13.4317V32.7565L29.8593 30.319V13.4317L30.7429 14.0183C30.9485 14.1554 31.2151 14.1554 31.4208 14.0183L32.2968 13.4317ZM29.2499 31.4388L31.436 33.6249H27.0638L29.2499 31.4388ZM33.9421 6.03545L31.8702 12.2511L31.078 12.7767L29.5851 11.7864C29.3794 11.6493 29.1128 11.6493 28.9071 11.7864L27.4142 12.7767C27.4142 12.7767 25.8907 11.7636 25.8755 11.756C25.6774 11.6493 25.4337 11.6645 25.2509 11.7864L25.1595 11.8474L27.7569 4.0626C28.0769 3.11045 28.8538 2.39443 29.8974 2.08213C30.979 1.76221 32.114 1.96025 32.9366 2.61533C33.9497 3.43799 34.3534 4.80147 33.9421 6.03545Z"
    fill="black" />
  <path d="M28.5288 5.61157L32.1864 5.0032L32.3863 6.20489L28.7287 6.81326L28.5288 5.61157Z" fill="black" />
  <path d="M27.3091 9.26587L30.9667 8.6575L31.1666 9.85919L27.509 10.4676L27.3091 9.26587Z" fill="black" />
  <path
    d="M19.9949 27.5312C19.3246 27.5236 18.6771 27.7902 18.2049 28.2701C18.1973 28.2625 18.1896 28.2548 18.182 28.2396L18.083 27.8359C18.083 27.8283 18.083 27.8283 18.0754 27.8207C17.8393 26.9904 18.3115 25.9392 18.7229 25.5279C18.9057 25.3451 18.9514 25.0556 18.8371 24.8271L18.2277 23.6084C18.0754 23.3037 17.7098 23.1818 17.4127 23.3341C15.7064 24.1796 14.6324 25.924 14.64 27.8207V28.1482C14.4953 28.0416 14.3354 27.9425 14.1754 27.8511C12.9947 27.2189 11.4637 27.615 10.7629 28.7271C10.3592 29.3746 10.2525 30.2505 10.4811 31.0199L11.2732 33.663C10.2221 35.773 7.6627 36.6337 5.55273 35.5902C3.46563 34.5543 2.59727 32.033 3.60273 29.9306C3.61797 29.9002 3.6332 29.8697 3.64844 29.8392L3.67129 31.9111L4.89004 31.8959L4.85195 29.3593L7.28184 29.4736L7.34277 28.2548L5.22519 28.1558C5.85742 27.7673 6.58867 27.5541 7.32754 27.5312C8.21113 27.5084 9.07949 27.7597 9.81074 28.2548L10.4887 27.2418C9.11758 26.3201 7.40371 26.0687 5.82695 26.5486L6.08594 25.9392L4.96621 25.4593L4.12832 27.4093C4.06738 27.455 3.99883 27.5084 3.93789 27.5617L2.0793 25.7031L1.21855 26.5638L3.09238 28.4377C3.0543 28.491 3.01621 28.5443 2.97812 28.5976L0.982422 29.4507L1.4623 30.5705L2.16309 30.2658C1.31758 33.1755 2.99336 36.2148 5.90312 37.0603C7.82266 37.6164 9.89453 37.0832 11.3113 35.6664C11.4561 35.5216 11.5932 35.3617 11.7227 35.2017L11.8445 35.5978C12.2178 36.847 13.5279 37.5478 14.7771 37.1746C14.9523 37.1212 15.1123 37.0527 15.2723 36.9613C16.0111 37.3726 16.91 37.3726 17.6488 36.9613C18.7762 37.6087 20.2158 37.2127 20.8633 36.0853C20.9547 35.933 21.0232 35.7654 21.0766 35.5902L22.4477 31.0123C22.5314 30.7076 22.5695 30.3877 22.5543 30.0677C22.5467 28.6738 21.4041 27.5312 19.9949 27.5312ZM17.4203 24.7357L17.5574 25.0099C17.0775 25.6726 16.7348 26.64 16.7957 27.5541C16.6205 27.5236 16.1406 27.5007 15.8512 27.6074C15.9121 26.4572 16.491 25.406 17.4203 24.7357ZM13.01 35.255L11.6389 30.6771C11.5094 30.2429 11.5703 29.725 11.7836 29.3822C12.134 28.8185 12.9795 28.6052 13.5889 28.9328C13.8783 29.0851 13.9926 29.1918 14.1068 29.3365C14.0535 29.5421 14.023 29.7554 14.023 29.9687V34.8437C14.023 35.2627 14.1297 35.674 14.3354 36.0396C13.7488 36.1615 13.1775 35.8187 13.01 35.255ZM15.2342 34.8437V29.9687C15.2342 29.2984 15.7826 28.75 16.4529 28.75C17.1232 28.75 17.6717 29.2984 17.6717 29.9687V34.8437C17.6717 35.514 17.1232 36.0625 16.4529 36.0625C15.7826 36.0625 15.2342 35.514 15.2342 34.8437ZM21.2746 30.6771L19.9035 35.255C19.7359 35.8187 19.157 36.1615 18.5781 36.0396C18.7838 35.674 18.8904 35.2627 18.8904 34.8437V29.9687C18.8904 29.7783 18.8676 29.5955 18.8219 29.4127C18.9818 29.1689 19.3475 28.75 19.9873 28.75C20.7262 28.75 21.3203 29.3517 21.3203 30.083C21.3355 30.281 21.3203 30.4867 21.2746 30.6771Z"
    fill="black" />
</svg>