<svg width="200" height="180" viewBox="0 0 200 180" fill="none" xmlns="http://www.w3.org/2000/svg">
<path d="M38.531 154.71C39.557 146.389 44.6698 138.189 52.5376 135.481C49.4347 144.047 49.4354 153.443 52.5395 162.008C53.7485 165.307 55.4337 168.849 54.2965 172.173C53.5889 174.242 51.858 175.825 49.9231 176.814C47.9882 177.804 45.8408 178.276 43.7202 178.738L43.3029 179.086C39.9366 171.418 37.5051 163.032 38.531 154.71Z" fill="#237D64"/>
<path d="M52.6157 135.639C48.0338 140.817 45.1861 147.32 44.4769 154.224C44.2981 155.708 44.3522 157.211 44.6373 158.677C44.9607 160.097 45.6552 161.403 46.6484 162.46C47.5548 163.465 48.5974 164.387 49.2459 165.596C49.5688 166.22 49.7573 166.906 49.799 167.609C49.8407 168.311 49.7346 169.015 49.4878 169.673C48.9152 171.33 47.7866 172.68 46.6374 173.962C45.3615 175.385 44.0138 176.843 43.4715 178.73C43.4057 178.959 43.0579 178.842 43.1235 178.614C44.0672 175.331 47.2263 173.467 48.7329 170.51C49.4359 169.13 49.731 167.529 49.072 166.072C48.4956 164.799 47.4214 163.847 46.4949 162.838C45.511 161.821 44.7889 160.576 44.3918 159.213C44.0336 157.766 43.9222 156.268 44.0623 154.783C44.3249 151.435 45.1077 148.149 46.3821 145.046C47.817 141.497 49.8433 138.222 52.3733 135.361C52.5299 135.184 52.7714 135.463 52.6157 135.639L52.6157 135.639Z" fill="white"/>
<path d="M44.5755 151.988C43.4433 151.71 42.4457 151.036 41.7608 150.086C41.0759 149.135 40.7484 147.969 40.8367 146.798C40.8407 146.75 40.8629 146.706 40.8987 146.674C40.9345 146.642 40.981 146.626 41.0285 146.629C41.0759 146.631 41.1206 146.652 41.1531 146.687C41.1856 146.722 41.2034 146.768 41.2027 146.816C41.1185 147.907 41.4237 148.993 42.0633 149.877C42.7028 150.761 43.6346 151.385 44.6904 151.637C44.9198 151.692 44.8036 152.042 44.5755 151.988Z" fill="white"/>
<path d="M46.1223 162.012C48.1672 160.78 49.6767 158.817 50.3499 156.512C50.4165 156.284 50.7643 156.4 50.6979 156.628C49.9929 159.025 48.4178 161.065 46.2871 162.342C46.0839 162.464 45.9202 162.133 46.1223 162.012Z" fill="white"/>
<path d="M48.1569 141.847C48.5728 142.047 49.0313 142.139 49.4912 142.115C49.9511 142.091 50.398 141.953 50.7917 141.712C50.9933 141.588 51.1568 141.919 50.9565 142.042C50.5203 142.306 50.0265 142.459 49.5185 142.486C49.0104 142.513 48.5035 142.414 48.042 142.198C47.9968 142.181 47.9596 142.148 47.938 142.105C47.9164 142.061 47.9119 142.011 47.9255 141.965C47.941 141.918 47.9739 141.88 48.0173 141.858C48.0606 141.836 48.1108 141.832 48.1569 141.847Z" fill="white"/>
<path d="M76.5199 150.345C76.3962 150.426 76.2726 150.507 76.1488 150.591C74.4918 151.69 72.9261 152.923 71.4671 154.278C71.3526 154.381 71.2381 154.487 71.1268 154.593C67.6462 157.895 64.8036 161.82 62.7435 166.169C61.9253 167.9 61.2389 169.692 60.6902 171.528C59.9325 174.064 59.311 176.874 57.8111 178.949C57.6571 179.167 57.4898 179.375 57.3102 179.573H43.7563C43.7255 179.557 43.6946 179.544 43.6636 179.529L43.1225 179.554C43.1442 179.457 43.1688 179.357 43.1906 179.261C43.2029 179.204 43.2183 179.148 43.2307 179.092C43.2399 179.055 43.2493 179.017 43.2555 178.983C43.2585 178.97 43.2617 178.958 43.2647 178.949C43.2709 178.914 43.2803 178.883 43.2864 178.852C43.4225 178.294 43.5627 177.735 43.707 177.177C43.707 177.174 43.707 177.174 43.71 177.171C44.7692 172.905 46.3262 168.782 48.3485 164.887C48.4104 164.771 48.4722 164.653 48.5403 164.538C49.4767 162.813 50.5513 161.169 51.7533 159.621C52.4142 158.776 53.117 157.965 53.8592 157.192C55.7807 155.196 58.0013 153.519 60.4397 152.219C65.3009 149.63 70.9289 148.638 76.1242 150.22C76.257 150.261 76.387 150.301 76.5199 150.345Z" fill="#237D64"/>
<path d="M76.4895 150.518C69.7402 151.87 63.5848 155.333 58.8978 160.415C57.8695 161.491 57.0158 162.724 56.368 164.068C55.779 165.398 55.5538 166.863 55.7157 168.31C55.8399 169.663 56.1221 171.032 55.9182 172.391C55.8035 173.086 55.5446 173.748 55.1585 174.334C54.7724 174.92 54.2678 175.418 53.6778 175.793C52.2317 176.768 50.5246 177.161 48.842 177.487C46.9738 177.848 45.0276 178.194 43.4683 179.371C43.2794 179.514 43.071 179.21 43.2597 179.067C45.9725 177.019 49.6079 177.449 52.5756 176.003C53.9604 175.328 55.152 174.229 55.4951 172.666C55.795 171.299 55.5052 169.887 55.3677 168.518C55.1892 167.109 55.3556 165.676 55.8523 164.347C56.4301 162.974 57.2353 161.71 58.2335 160.609C60.4415 158.095 63.0276 155.948 65.897 154.244C69.1612 152.282 72.7342 150.897 76.4613 150.15C76.692 150.104 76.7186 150.472 76.4894 150.518H76.4895Z" fill="white"/>
<path d="M60.3115 158.689C59.573 157.78 59.1789 156.636 59.1995 155.461C59.2201 154.286 59.6541 153.157 60.4241 152.275C60.5805 152.097 60.8619 152.333 60.7053 152.512C59.9869 153.332 59.5827 154.384 59.5657 155.478C59.5487 156.572 59.92 157.637 60.6127 158.479C60.763 158.662 60.461 158.871 60.3115 158.689Z" fill="white"/>
<path d="M55.5633 167.633C57.9311 167.891 60.3086 167.24 62.2215 165.809C62.411 165.667 62.6194 165.971 62.4302 166.112C60.4367 167.598 57.9613 168.271 55.4978 167.996C55.263 167.97 55.3298 167.606 55.5633 167.633Z" fill="white"/>
<path d="M69.2237 152.768C69.4368 153.179 69.7479 153.531 70.1292 153.792C70.5104 154.052 70.9499 154.213 71.408 154.26C71.643 154.283 71.576 154.647 71.3425 154.624C70.8366 154.57 70.3515 154.391 69.9297 154.104C69.5078 153.818 69.162 153.431 68.9225 152.978C68.8964 152.937 68.8866 152.888 68.8952 152.84C68.9038 152.792 68.9301 152.75 68.9688 152.721C69.0088 152.693 69.058 152.683 69.1058 152.691C69.1535 152.7 69.1959 152.728 69.2237 152.768L69.2237 152.768Z" fill="white"/>
<path d="M118.877 35.1804H74.0343C72.6485 35.1788 71.32 34.6228 70.3401 33.6344C69.3603 32.646 68.8091 31.3059 68.8076 29.9081V5.27202C68.8091 3.87424 69.3603 2.53417 70.3402 1.54581C71.32 0.55745 72.6486 0.00152319 74.0343 0H118.877C120.262 0.00152225 121.591 0.557445 122.571 1.54581C123.551 2.53416 124.102 3.87424 124.103 5.27201V29.9081C124.102 31.3059 123.551 32.646 122.571 33.6344C121.591 34.6228 120.262 35.1788 118.877 35.1804Z" fill="#237D64"/>
<path d="M187.338 35.1804H142.496C141.11 35.1788 139.781 34.6228 138.802 33.6344C137.822 32.646 137.271 31.3059 137.269 29.9081V5.27202C137.271 3.87424 137.822 2.53417 138.802 1.54581C139.781 0.55745 141.11 0.00152319 142.496 0H187.338C188.724 0.00152225 190.052 0.557445 191.032 1.54581C192.012 2.53416 192.563 3.87424 192.565 5.27201V29.9081C192.563 31.3059 192.012 32.646 191.032 33.6344C190.052 34.6228 188.724 35.1788 187.338 35.1804Z" fill="#E6E6E6"/>
<path d="M50.4153 90.0724H5.57278C4.18704 90.0708 2.85852 89.5148 1.87867 88.5264C0.898819 87.538 0.347659 86.1979 0.346115 84.8001V60.164C0.34767 58.7663 0.898844 57.4262 1.8787 56.4378C2.85856 55.4495 4.18708 54.8935 5.57278 54.892H50.4153C51.801 54.8935 53.1295 55.4495 54.1093 56.4378C55.0892 57.4262 55.6404 58.7663 55.6419 60.164V84.8001C55.6404 86.1979 55.0892 87.538 54.1094 88.5264C53.1295 89.5148 51.801 90.0708 50.4153 90.0724Z" fill="#F2F2F2"/>
<path d="M118.877 90.0724H74.0343C72.6485 90.0708 71.32 89.5148 70.3401 88.5264C69.3603 87.538 68.8091 86.1979 68.8076 84.8001V60.164C68.8091 58.7663 69.3603 57.4262 70.3402 56.4378C71.32 55.4495 72.6486 54.8935 74.0343 54.892H118.877C120.262 54.8935 121.591 55.4495 122.571 56.4378C123.551 57.4262 124.102 58.7663 124.103 60.164V84.8001C124.102 86.1979 123.551 87.538 122.571 88.5264C121.591 89.5148 120.262 90.0708 118.877 90.0724Z" fill="#E6E6E6"/>
<path d="M122.043 94.6058C126.466 94.6058 130.052 90.9888 130.052 86.527C130.052 82.0652 126.466 78.4482 122.043 78.4482C117.62 78.4482 114.034 82.0652 114.034 86.527C114.034 90.9888 117.62 94.6058 122.043 94.6058Z" fill="#237D64"/>
<path d="M125.369 85.8486H122.646V83.1018C122.646 83.017 122.629 82.9329 122.597 82.8545C122.565 82.7761 122.518 82.7048 122.458 82.6448C122.399 82.5848 122.328 82.5372 122.25 82.5047C122.172 82.4722 122.089 82.4555 122.005 82.4555C121.921 82.4555 121.838 82.4722 121.76 82.5047C121.682 82.5372 121.611 82.5848 121.552 82.6448C121.492 82.7048 121.445 82.7761 121.413 82.8545C121.381 82.9329 121.364 83.017 121.364 83.1018V85.8486H118.641C118.557 85.8486 118.474 85.8653 118.396 85.8978C118.318 85.9303 118.248 85.9779 118.188 86.0379C118.129 86.0979 118.081 86.1692 118.049 86.2476C118.017 86.326 118 86.4101 118 86.4949C118 86.5798 118.017 86.6639 118.049 86.7423C118.081 86.8207 118.129 86.892 118.188 86.952C118.248 87.012 118.318 87.0596 118.396 87.0921C118.474 87.1246 118.557 87.1413 118.641 87.1413H121.364V89.8881C121.364 89.9729 121.381 90.057 121.413 90.1354C121.445 90.2138 121.492 90.2851 121.552 90.3451C121.611 90.4051 121.682 90.4527 121.76 90.4852C121.838 90.5177 121.921 90.5344 122.005 90.5344C122.175 90.5344 122.338 90.4663 122.458 90.3451C122.578 90.2239 122.646 90.0595 122.646 89.8881V87.1413H125.369C125.453 87.1413 125.536 87.1246 125.614 87.0921C125.692 87.0596 125.762 87.012 125.822 86.952C125.881 86.8919 125.929 86.8207 125.961 86.7423C125.993 86.6639 126.01 86.5798 126.01 86.4949C126.01 86.41 125.993 86.326 125.961 86.2476C125.929 86.1692 125.881 86.0979 125.822 86.0379C125.762 85.9779 125.692 85.9303 125.614 85.8978C125.536 85.8653 125.453 85.8486 125.369 85.8486L125.369 85.8486Z" fill="white"/>
<path d="M191.558 41.1303C195.981 41.1303 199.567 37.5133 199.567 33.0516C199.567 28.5898 195.981 24.9728 191.558 24.9728C187.134 24.9728 183.549 28.5898 183.549 33.0516C183.549 37.5133 187.134 41.1303 191.558 41.1303Z" fill="#237D64"/>
<path d="M194.883 32.3731H192.16V29.6264C192.16 29.5415 192.144 29.4574 192.112 29.379C192.079 29.3006 192.032 29.2293 191.973 29.1693C191.913 29.1093 191.843 29.0617 191.765 29.0292C191.687 28.9967 191.604 28.98 191.52 28.98C191.436 28.98 191.352 28.9967 191.274 29.0292C191.197 29.0617 191.126 29.1093 191.067 29.1693C191.007 29.2293 190.96 29.3006 190.928 29.379C190.895 29.4574 190.879 29.5415 190.879 29.6264V32.3731H188.156C188.072 32.3731 187.988 32.3899 187.911 32.4223C187.833 32.4548 187.762 32.5024 187.703 32.5624C187.643 32.6225 187.596 32.6937 187.564 32.7721C187.532 32.8506 187.515 32.9346 187.515 33.0195C187.515 33.1044 187.532 33.1884 187.564 33.2668C187.596 33.3452 187.643 33.4165 187.703 33.4765C187.762 33.5365 187.833 33.5841 187.911 33.6166C187.988 33.6491 188.072 33.6658 188.156 33.6658H190.879V36.4126C190.879 36.4975 190.896 36.5815 190.928 36.6599C190.96 36.7384 191.007 36.8096 191.067 36.8696C191.126 36.9297 191.197 36.9773 191.274 37.0097C191.352 37.0422 191.436 37.0589 191.52 37.0589C191.69 37.0589 191.853 36.9908 191.973 36.8696C192.093 36.7484 192.16 36.584 192.16 36.4126V33.6658H194.883C194.968 33.6658 195.051 33.6491 195.129 33.6166C195.206 33.5841 195.277 33.5365 195.337 33.4765C195.396 33.4165 195.443 33.3452 195.475 33.2668C195.508 33.1884 195.524 33.1043 195.524 33.0195C195.524 32.9346 195.508 32.8505 195.475 32.7721C195.443 32.6937 195.396 32.6224 195.337 32.5624C195.277 32.5024 195.206 32.4548 195.129 32.4223C195.051 32.3898 194.968 32.3731 194.883 32.3731L194.883 32.3731Z" fill="white"/>
<path d="M53.5815 40.422C58.0047 40.422 61.5905 36.805 61.5905 32.3433C61.5905 27.8815 58.0047 24.2645 53.5815 24.2645C49.1582 24.2645 45.5725 27.8815 45.5725 32.3433C45.5725 36.805 49.1582 40.422 53.5815 40.422Z" fill="#237D64"/>
<path d="M56.9073 31.6649H54.1842V28.9181C54.1842 28.8332 54.1677 28.7492 54.1355 28.6707C54.1033 28.5923 54.0561 28.5211 53.9966 28.461C53.9371 28.401 53.8664 28.3534 53.7887 28.3209C53.7109 28.2885 53.6276 28.2717 53.5435 28.2717C53.4593 28.2717 53.376 28.2885 53.2983 28.3209C53.2205 28.3534 53.1499 28.401 53.0904 28.461C53.0309 28.5211 52.9837 28.5923 52.9515 28.6707C52.9193 28.7492 52.9027 28.8332 52.9027 28.9181V31.6649H50.1796C50.0955 31.6649 50.0122 31.6816 49.9344 31.7141C49.8567 31.7465 49.7861 31.7941 49.7266 31.8542C49.6671 31.9142 49.6199 31.9854 49.5877 32.0639C49.5555 32.1423 49.5389 32.2263 49.5389 32.3112C49.5389 32.4826 49.6064 32.647 49.7266 32.7682C49.8467 32.8894 50.0097 32.9575 50.1796 32.9576H52.9027V35.7043C52.9027 35.7892 52.9193 35.8732 52.9515 35.9517C52.9837 36.0301 53.0309 36.1013 53.0904 36.1614C53.1499 36.2214 53.2205 36.269 53.2983 36.3015C53.376 36.3339 53.4593 36.3507 53.5435 36.3507C53.6276 36.3507 53.7109 36.3339 53.7887 36.3015C53.8664 36.269 53.9371 36.2214 53.9966 36.1614C54.0561 36.1013 54.1033 36.0301 54.1355 35.9517C54.1677 35.8733 54.1842 35.7892 54.1842 35.7043V32.9575H56.9073C56.9914 32.9575 57.0748 32.9408 57.1525 32.9083C57.2302 32.8758 57.3009 32.8282 57.3604 32.7682C57.4199 32.7082 57.4671 32.6369 57.4993 32.5585C57.5315 32.4801 57.548 32.3961 57.548 32.3112C57.548 32.1398 57.4805 31.9754 57.3604 31.8541C57.2402 31.7329 57.0772 31.6648 56.9073 31.6648V31.6649Z" fill="white"/>
<path d="M113.543 21.1831C113.689 21.6289 113.737 22.1017 113.682 22.568C113.628 23.0343 113.472 23.4829 113.227 23.8821C112.982 24.2814 112.653 24.6216 112.264 24.8787C111.874 25.1359 111.434 25.3038 110.973 25.3706L107.27 50.8691L101.195 47.8763L107.305 22.424C107.245 21.6357 107.474 20.8527 107.948 20.2232C108.422 19.5938 109.109 19.1616 109.878 19.0086C110.647 18.8557 111.445 18.9925 112.12 19.3933C112.796 19.7941 113.302 20.4309 113.543 21.1831L113.543 21.1831Z" fill="#9E616A"/>
<path d="M69.3115 102.848C69.5819 102.466 69.766 102.029 69.8507 101.567C69.9354 101.105 69.9187 100.63 69.8018 100.176C69.685 99.7213 69.4707 99.2982 69.1742 98.9362C68.8776 98.5742 68.506 98.2823 68.0855 98.0809L70.5839 70.9584L65.351 73.664L63.7171 99.8C63.4285 100.535 63.4172 101.351 63.6853 102.094C63.9535 102.837 64.4825 103.455 65.172 103.831C65.8616 104.206 66.6639 104.314 67.4268 104.133C68.1897 103.952 68.8603 103.495 69.3114 102.848H69.3115Z" fill="#9E616A"/>
<path d="M72.8864 89.1303L95.3421 88.2591L96.6376 64.7366H70.7272L72.8864 89.1303Z" fill="#9E616A"/>
<path d="M68.7187 172.202L72.556 172.201L74.3813 157.272H68.718L68.7187 172.202Z" fill="#9E616A"/>
<path d="M67.7668 170.292L73.8327 169.927V172.549L79.5998 176.566C79.8847 176.765 80.0992 177.05 80.2121 177.38C80.325 177.71 80.3303 178.068 80.2273 178.401C80.1243 178.734 79.9183 179.026 79.6395 179.233C79.3606 179.44 79.0235 179.551 78.6773 179.551H71.4556L70.2108 176.958L69.7248 179.551H67.0019L67.7668 170.292Z" fill="#2F2E41"/>
<path d="M85.7862 172.202L89.6236 172.201L91.4489 157.272H85.7856L85.7862 172.202Z" fill="#9E616A"/>
<path d="M72.5748 83.6084C72.5748 83.6084 65.8559 89.08 69.4982 108.621C68.9436 108.688 69.5716 109.79 69.5716 109.79L70.0972 125.712L70.5034 127.537L69.1531 130.482L69.7097 133.681L67.9936 162.718L74.3332 163.545L80.4 133.392L81.5554 130.002L82.7143 127.03L82.0892 123.862L82.6019 118.943L86.0993 102.359L86.9555 131.122L85.7608 133.868L86.4256 136.882L84.9444 138.482L84.359 165.394L91.1189 165.712L96.7121 138.584L96.2784 135.122L97.0225 132.562V126.583L98.297 123.762L101.076 108.375C101.076 108.375 101.914 96.3489 95.7981 82.1972L72.5748 83.6084Z" fill="#2F2E41"/>
<path d="M75.3131 45.1872C75.3131 45.1872 66.8268 46.8802 65.3646 54.1805C63.9023 61.4809 62.9616 78.0011 62.9616 78.0011L63.2818 80.3017L71.4907 82.2218L76.7302 59.0741L75.3131 45.1872Z" fill="#253D4E"/>
<path d="M94.6801 47.6514C94.6801 47.6514 95.5403 46.4355 100.357 46.2479C100.556 46.2402 100.31 45.8433 100.31 45.8433L102.627 34.4213L110.348 38.733L109.044 50.7076L96.3576 65.2631L94.6801 47.6514Z" fill="#253D4E"/>
<path d="M89.8677 81.7025C86.233 81.7027 80.7619 81.2981 72.5256 80.0647C71.9951 79.984 71.5041 79.7343 71.1242 79.3521C70.7444 78.9699 70.4956 78.4752 70.4143 77.9403C70.1453 77.6538 69.9703 77.2907 69.9131 76.9004C69.8558 76.5101 69.9191 76.1115 70.0944 75.7587L70.102 75.7436L69.9154 75.5217C69.6268 75.1797 69.4572 74.7517 69.4327 74.3032C69.4082 73.8548 69.53 73.4106 69.7796 73.0386L67.2289 54.6322C66.97 52.8043 67.3662 50.9433 68.3463 49.3839C69.3263 47.8244 70.8258 46.6689 72.5751 46.1252L73.5167 45.8294L77.0776 41.1312L77.1478 41.132L88.5794 41.2856L92.2891 46.0375L98.2859 47.4639L98.3015 47.5559L99.694 55.6707C100.418 59.8913 98.7573 61.5516 96.6375 65.2631L97.2597 75.6871L97.5419 76.2044C97.6986 76.4908 97.7511 76.8234 97.6903 77.1447C97.6295 77.4659 97.4593 77.7557 97.2091 77.9637C97.3983 78.509 97.4112 79.1007 97.246 79.6538L97.0993 80.1428C97.0996 80.1568 97.0605 80.3555 96.7438 80.5981C96.1729 81.0355 94.5338 81.7025 89.8677 81.7025Z" fill="#253D4E"/>
<path d="M84.8345 170.292L90.9004 169.927V172.549L96.6675 176.566C96.9524 176.765 97.1669 177.05 97.2798 177.38C97.3927 177.71 97.398 178.068 97.295 178.401C97.192 178.734 96.986 179.026 96.7072 179.233C96.4283 179.44 96.0912 179.551 95.745 179.551H88.5233L87.2785 176.958L86.7925 179.551H84.0696L84.8345 170.292Z" fill="#2F2E41"/>
<path d="M91.2054 30.8928C91.9983 25.9646 88.6804 21.3212 83.7947 20.5215C78.909 19.7218 74.3057 23.0686 73.5129 27.9968C72.7201 32.925 76.038 37.5684 80.9236 38.3681C85.8093 39.1679 90.4126 35.8211 91.2054 30.8928Z" fill="#9E616A"/>
<path d="M87.5997 20.6115C84.3149 18.3328 81.4224 17.9857 79.0463 18.632C78.7383 18.1514 78.3064 17.7645 77.7968 17.5129C75.9437 12.8028 70.3041 9.97409 65.4643 11.3491C60.5932 12.7331 57.2322 18.1758 58.1488 23.1962C58.7168 26.308 60.6583 29.0027 61.4392 32.0672C62.9509 37.9996 59.2633 44.7951 53.4944 46.7074C58.9564 47.8137 64.9688 44.4483 66.9283 39.1878C67.8801 36.6326 67.9375 33.8429 68.0585 31.1161C68.0903 29.234 68.3189 27.3604 68.7405 25.5267C68.9497 24.704 69.2453 23.9062 69.6223 23.1467C70.4435 21.4774 71.8073 20.1427 73.4863 19.3653C73.336 19.8343 73.2984 20.3327 73.3766 20.8193C73.4549 21.3059 73.6467 21.7668 73.9363 22.1639C72.6554 23.7825 71.9581 25.5329 71.9581 26.5812C69.2971 31.487 73.1024 35.7009 77.966 38.385C79.9058 39.4612 82.1457 39.8551 84.3321 39.5045L84.5356 38.6283L84.8112 39.4176L85.7315 42.0634C86.7931 42.5815 87.8456 43.1494 88.8888 43.7671C88.4925 41.8896 88.1718 40.0156 87.9512 38.1833C87.6457 35.6895 88.7106 31.9768 89.4787 29.719C89.955 28.3275 90.1994 26.866 90.2021 25.3939V25.3296L90.95 27.7529L93.6729 26.5812C93.1664 23.6503 93.6729 20.323 87.5997 20.6115Z" fill="#2F2E41"/>
<path d="M199.584 180H0.415938C0.305434 179.999 0.199646 179.955 0.121703 179.876C0.0437602 179.797 0 179.69 0 179.578C0 179.467 0.0437602 179.36 0.121703 179.281C0.199646 179.202 0.305434 179.157 0.415938 179.157H199.584C199.695 179.157 199.8 179.202 199.878 179.281C199.956 179.36 200 179.467 200 179.578C200 179.69 199.956 179.797 199.878 179.876C199.8 179.955 199.695 179.999 199.584 180Z" fill="#CCCCCC"/>
<path d="M52.666 95.6674C57.0892 95.6674 60.675 92.0504 60.675 87.5887C60.675 83.1269 57.0892 79.5099 52.666 79.5099C48.2427 79.5099 44.6569 83.1269 44.6569 87.5887C44.6569 92.0504 48.2427 95.6674 52.666 95.6674Z" fill="#E6E6E6"/>
<path d="M173.17 82.9456H145.079C144.211 82.9446 143.379 82.5963 142.765 81.9771C142.151 81.358 141.806 80.5184 141.805 79.6428V64.2097C141.806 63.3341 142.151 62.4946 142.765 61.8755C143.379 61.2563 144.211 60.908 145.079 60.9071H173.17C174.039 60.908 174.871 61.2563 175.485 61.8754C176.098 62.4946 176.444 63.3341 176.445 64.2097V79.6428C176.444 80.5184 176.098 81.358 175.485 81.9771C174.871 82.5963 174.039 82.9446 173.17 82.9456Z" fill="#F2F2F2"/>
<path d="M173.584 76.6767C175.933 76.6767 177.838 74.7559 177.838 72.3865C177.838 70.017 175.933 68.0962 173.584 68.0962C171.235 68.0962 169.331 70.017 169.331 72.3865C169.331 74.7559 171.235 76.6767 173.584 76.6767Z" fill="#237D64"/>
<path d="M175.351 72.0262H173.904V70.5675C173.904 70.5224 173.896 70.4778 173.878 70.4362C173.861 70.3945 173.836 70.3567 173.805 70.3248C173.773 70.2929 173.736 70.2676 173.694 70.2504C173.653 70.2331 173.609 70.2243 173.564 70.2243C173.474 70.2243 173.387 70.2604 173.323 70.3248C173.26 70.3892 173.224 70.4765 173.224 70.5675V72.0262H171.778C171.688 72.0262 171.601 72.0624 171.537 72.1267C171.473 72.1911 171.437 72.2784 171.437 72.3695C171.437 72.4145 171.446 72.4592 171.463 72.5008C171.48 72.5425 171.506 72.5803 171.537 72.6122C171.569 72.644 171.606 72.6693 171.648 72.6866C171.689 72.7038 171.733 72.7127 171.778 72.7127H173.224V74.1714C173.224 74.2165 173.233 74.2611 173.25 74.3027C173.267 74.3444 173.292 74.3822 173.324 74.4141C173.355 74.446 173.393 74.4713 173.434 74.4885C173.475 74.5058 173.519 74.5146 173.564 74.5146C173.654 74.5146 173.741 74.4785 173.805 74.4141C173.869 74.3497 173.904 74.2624 173.904 74.1714V72.7127H175.351C175.441 72.7127 175.527 72.6765 175.591 72.6122C175.655 72.5478 175.691 72.4605 175.691 72.3695C175.691 72.3244 175.682 72.2798 175.665 72.2381C175.648 72.1965 175.623 72.1586 175.591 72.1267C175.56 72.0949 175.522 72.0696 175.481 72.0524C175.439 72.0351 175.395 72.0262 175.351 72.0262L175.351 72.0262Z" fill="white"/>
<path d="M184.615 78.566H161.465C160.483 78.5649 159.541 78.1707 158.846 77.4699C158.151 76.7691 157.76 75.8189 157.759 74.8278V60.8888C157.76 60.7064 157.832 60.5316 157.96 60.4028C158.088 60.274 158.261 60.2016 158.442 60.2016C158.623 60.2016 158.796 60.274 158.924 60.4028C159.052 60.5316 159.124 60.7064 159.125 60.8888V64.6218L186.015 67.0875C186.552 67.0971 187.064 67.3189 187.44 67.7052C187.817 68.0916 188.028 68.6116 188.029 69.1534C188.029 69.196 188.025 69.2385 188.017 69.2803L186.662 76.5702C186.643 77.1055 186.42 77.6126 186.038 77.9848C185.656 78.357 185.146 78.5654 184.615 78.566ZM159.125 66.0049V74.8278C159.126 75.4537 159.372 76.0537 159.811 76.4963C160.25 76.9389 160.845 77.1878 161.465 77.1885H184.615C184.796 77.1883 184.97 77.1157 185.098 76.9866C185.226 76.8575 185.298 76.6824 185.298 76.4998C185.298 76.4572 185.302 76.4147 185.31 76.3729L186.661 69.1003C186.648 68.9274 186.57 68.766 186.444 68.6482C186.318 68.5304 186.153 68.4649 185.981 68.4647C185.96 68.4647 185.939 68.4638 185.919 68.4618L159.125 66.0049Z" fill="#237D64"/>
<path d="M155.314 84.994C155.942 84.994 156.452 84.4801 156.452 83.8461C156.452 83.2122 155.942 82.6983 155.314 82.6983C154.685 82.6983 154.176 83.2122 154.176 83.8461C154.176 84.4801 154.685 84.994 155.314 84.994Z" fill="#237D64"/>
<path d="M183.705 84.994C184.333 84.994 184.843 84.4801 184.843 83.8461C184.843 83.2122 184.333 82.6983 183.705 82.6983C183.076 82.6983 182.567 83.2122 182.567 83.8461C182.567 84.4801 183.076 84.994 183.705 84.994Z" fill="#237D64"/>
<path d="M184.843 82.6983H154.403C154.222 82.6983 154.049 82.6257 153.921 82.4966C153.793 82.3674 153.721 82.1922 153.721 82.0096C153.721 81.8269 153.793 81.6517 153.921 81.5226C154.049 81.3934 154.222 81.3208 154.403 81.3208H184.843C185.024 81.3208 185.197 81.3934 185.325 81.5226C185.454 81.6517 185.525 81.8269 185.525 82.0096C185.525 82.1922 185.454 82.3674 185.325 82.4966C185.197 82.6257 185.024 82.6983 184.843 82.6983Z" fill="#237D64"/>
<path d="M160.263 61.3479H154.345C154.165 61.3475 153.991 61.2747 153.864 61.1456C153.736 61.0165 153.664 60.8416 153.664 60.6592C153.664 60.4768 153.736 60.3018 153.864 60.1727C153.991 60.0436 154.165 59.9709 154.345 59.9704H160.263C160.444 59.9709 160.617 60.0436 160.745 60.1727C160.872 60.3018 160.944 60.4768 160.944 60.6592C160.944 60.8416 160.872 61.0165 160.745 61.1456C160.617 61.2747 160.444 61.3475 160.263 61.3479Z" fill="#237D64"/>
<path d="M165.01 82.3476C164.847 82.3478 164.689 82.2888 164.565 82.1813L160.077 78.2911C160.009 78.2322 159.953 78.1603 159.912 78.0796C159.872 77.9988 159.847 77.9108 159.841 77.8205C159.834 77.7302 159.844 77.6394 159.872 77.5534C159.9 77.4673 159.945 77.3876 160.003 77.3189C160.062 77.2503 160.133 77.1939 160.213 77.153C160.294 77.1122 160.381 77.0877 160.47 77.081C160.56 77.0742 160.65 77.0854 160.735 77.1137C160.82 77.1421 160.899 77.1872 160.967 77.2463L165.455 81.1366C165.561 81.2282 165.636 81.3504 165.671 81.4866C165.706 81.6228 165.699 81.7665 165.65 81.8984C165.602 82.0303 165.514 82.1441 165.4 82.2244C165.285 82.3047 165.149 82.3477 165.01 82.3476V82.3476Z" fill="#237D64"/>
<path d="M165.956 78.1429C165.866 78.1429 165.777 78.1251 165.694 78.0905C165.611 78.0559 165.536 78.0052 165.473 77.9412C165.409 77.8773 165.359 77.8013 165.325 77.7178C165.29 77.6342 165.273 77.5447 165.273 77.4543V66.3985C165.273 66.2159 165.345 66.0407 165.473 65.9115C165.601 65.7824 165.774 65.7098 165.956 65.7098C166.137 65.7098 166.31 65.7824 166.438 65.9115C166.566 66.0407 166.638 66.2159 166.638 66.3985V77.4542C166.638 77.5446 166.621 77.6342 166.586 77.7177C166.552 77.8013 166.502 77.8772 166.438 77.9412C166.375 78.0051 166.3 78.0558 166.217 78.0905C166.134 78.1251 166.045 78.1429 165.956 78.1429H165.956Z" fill="#237D64"/>
<path d="M180.379 78.1429C180.289 78.1429 180.2 78.1251 180.117 78.0905C180.034 78.0559 179.959 78.0052 179.896 77.9412C179.832 77.8773 179.782 77.8013 179.748 77.7178C179.713 77.6342 179.696 77.5447 179.696 77.4542V67.3168C179.696 67.1344 179.768 66.9597 179.896 66.8308C180.024 66.702 180.198 66.6297 180.379 66.6297C180.559 66.6297 180.733 66.702 180.861 66.8308C180.989 66.9597 181.061 67.1344 181.061 67.3168V77.4542C181.061 77.5446 181.044 77.6342 181.009 77.7177C180.975 77.8013 180.925 77.8772 180.861 77.9412C180.798 78.0051 180.723 78.0558 180.64 78.0905C180.557 78.1251 180.468 78.1429 180.379 78.1429H180.379Z" fill="#237D64"/>
</svg>
