<svg width="52" height="52" viewBox="0 0 52 52" fill="none" xmlns="http://www.w3.org/2000/svg">
  <path
    d="M26.3556 24.5182C24.6699 24.1136 24.4766 23.9529 24.4766 22.9531C24.4766 21.6275 26.424 20.973 27.2184 22.0397C27.7228 22.7121 28.6794 22.849 29.3519 22.3431C30.0243 21.8388 30.1597 20.8837 29.6553 20.2097C29.1136 19.4876 28.3584 18.9775 27.5234 18.6785V16.8594C27.5234 16.0173 26.8421 15.3359 26 15.3359C25.1579 15.3359 24.4766 16.0173 24.4766 16.8594V18.6634C22.7071 19.2943 21.4297 20.9696 21.4297 22.9531C21.4297 26.4686 24.0675 27.1024 25.6444 27.4818C27.3301 27.8864 27.5234 28.0471 27.5234 29.0469C27.5234 29.8874 26.8405 30.5703 26 30.5703C25.5165 30.5703 25.0716 30.3486 24.7816 29.9603C24.2772 29.2879 23.325 29.1554 22.6481 29.6569C21.9757 30.1612 21.8403 31.1163 22.3447 31.7903C22.8864 32.5124 23.6416 33.0225 24.4766 33.3215V35.1406C24.4766 35.9827 25.1579 36.6641 26 36.6641C26.8421 36.6641 27.5234 35.9827 27.5234 35.1406V33.3366C29.2929 32.7057 30.5703 31.0304 30.5703 29.0469C30.5703 25.5314 27.9325 24.8976 26.3556 24.5182Z"
    fill="url(#paint0_linear_92_1174)" />
  <path
    d="M52 26.1016C52 13.1241 42.3194 2.08213 29.4817 0.41732C28.6962 0.307227 27.9954 0.807117 27.808 1.55838L26.3099 7.55249C26.0835 8.45193 26.7122 9.3538 27.6518 9.43891C36.3223 10.2096 42.8594 17.3731 42.8594 26.1016C42.8594 31.7207 40.0356 36.9442 35.4073 40.0327L33.4138 37.3756C32.6526 36.3564 31.0273 36.6699 30.718 37.9201L27.6711 50.1076C27.43 51.0657 28.1567 52 29.1484 52H41.3359C42.5927 52 43.3049 50.5617 42.5544 49.5631L40.9074 47.3657C47.8849 42.5187 52 34.6873 52 26.1016ZM24.3482 42.5611C15.6777 41.7904 9.14062 34.6269 9.14062 25.8984C9.14062 20.2793 11.9644 15.0558 16.5927 11.9673L18.5862 14.6244C19.3407 15.6316 20.9703 15.34 21.282 14.0799L24.3289 1.89241C24.57 0.934273 23.8433 0 22.8516 0H10.6641C9.40733 0 8.69507 1.43833 9.44562 2.43689L11.0926 4.6343C4.11511 9.48127 0 17.3127 0 25.8984C0 38.8759 9.68063 49.9179 22.5183 51.5827C23.2766 51.6838 24.0031 51.1992 24.192 50.4416L25.6901 44.4475C25.9165 43.5481 25.2878 42.6462 24.3482 42.5611Z"
    fill="url(#paint1_linear_92_1174)" />
  <defs>
    <linearGradient id="paint0_linear_92_1174" x1="22.9815" y1="33.0431" x2="34.4602" y2="28.1237"
      gradientUnits="userSpaceOnUse">
      <stop stop-color="#00B59C" />
      <stop offset="1" stop-color="#9CFFAC" />
    </linearGradient>
    <linearGradient id="paint1_linear_92_1174" x1="26" y1="52" x2="26" y2="0" gradientUnits="userSpaceOnUse">
      <stop stop-color="#00B59C" />
      <stop offset="1" stop-color="#9CFFAC" />
    </linearGradient>
  </defs>
</svg>