<svg width="200" height="160" viewBox="0 0 200 160" fill="none" xmlns="http://www.w3.org/2000/svg">
<g clip-path="url(#clip0_546_7508)">
<path d="M9.29331 152.463C12.0675 157.394 17.9554 159.51 17.9554 159.51C17.9554 159.51 19.3453 153.633 16.5711 148.702C13.7969 143.772 7.90909 141.655 7.90909 141.655C7.90909 141.655 6.51911 147.533 9.29331 152.463Z" fill="#2F2E41"/>
<path d="M11.2001 150.841C16.2087 153.729 18.1376 159.465 18.1376 159.465C18.1376 159.465 11.9461 160.519 6.93753 157.631C1.92896 154.743 0 149.007 0 149.007C0 149.007 6.19154 147.953 11.2001 150.841Z" fill="#237D64"/>
<path d="M123.493 7.68111H92.243V8.10893H123.493V7.68111Z" fill="#F2F2F2"/>
<path d="M115.011 8.00197H114.564V11.9593H115.011V8.00197Z" fill="#F2F2F2"/>
<path d="M101.395 8.00197H100.948V11.9593H101.395V8.00197Z" fill="#F2F2F2"/>
<path d="M139.341 28.2166H108.091V28.6445H139.341V28.2166Z" fill="#F2F2F2"/>
<path d="M117.02 24.3662H116.573V28.3236H117.02V24.3662Z" fill="#F2F2F2"/>
<path d="M130.636 24.3662H130.189V28.3236H130.636V24.3662Z" fill="#F2F2F2"/>
<path d="M180.859 37.8427H149.609V38.2705H180.859V37.8427Z" fill="#F2F2F2"/>
<path d="M158.538 33.9922H158.091V37.9496H158.538V33.9922Z" fill="#F2F2F2"/>
<path d="M172.154 33.9922H171.707V37.9496H172.154V33.9922Z" fill="#F2F2F2"/>
<path d="M177.734 137.098H146.484V137.526H177.734V137.098Z" fill="#F2F2F2"/>
<path d="M155.413 133.247H154.966V137.205H155.413V133.247Z" fill="#F2F2F2"/>
<path d="M169.029 133.247H168.582V137.205H169.029V133.247Z" fill="#F2F2F2"/>
<path d="M124.386 68.432H93.1358V68.8599H124.386V68.432Z" fill="#F2F2F2"/>
<path d="M102.064 64.5817H101.618V68.5391H102.064V64.5817Z" fill="#F2F2F2"/>
<path d="M115.68 64.5817H115.234V68.5391H115.68V64.5817Z" fill="#F2F2F2"/>
<path d="M134.207 119.985H102.957V120.413H134.207V119.985Z" fill="#F2F2F2"/>
<path d="M111.886 116.134H111.439V120.092H111.886V116.134Z" fill="#F2F2F2"/>
<path d="M125.502 116.134H125.056V120.092H125.502V116.134Z" fill="#F2F2F2"/>
<path d="M184.207 104.369H152.957V104.797H184.207V104.369Z" fill="#F2F2F2"/>
<path d="M161.886 100.519H161.439V104.476H161.886V100.519Z" fill="#F2F2F2"/>
<path d="M175.502 100.519H175.056V104.476H175.502V100.519Z" fill="#F2F2F2"/>
<path d="M80.817 150.205H27.963V149.841H80.4366V132.168H32.4063L30.073 127.509L30.4159 127.352L32.6455 131.803H80.817V150.205Z" fill="#2F2E41"/>
<path d="M34.9974 159.133C37.2025 159.133 38.99 157.42 38.99 155.307C38.99 153.194 37.2025 151.481 34.9974 151.481C32.7924 151.481 31.0049 153.194 31.0049 155.307C31.0049 157.42 32.7924 159.133 34.9974 159.133Z" fill="#253D4E"/>
<path d="M74.3528 159.133C76.5579 159.133 78.3454 157.42 78.3454 155.307C78.3454 153.194 76.5579 151.481 74.3528 151.481C72.1478 151.481 70.3603 153.194 70.3603 155.307C70.3603 157.42 72.1478 159.133 74.3528 159.133Z" fill="#253D4E"/>
<path d="M120.743 76.4148C122.108 76.4148 123.214 75.3543 123.214 74.0462C123.214 72.7381 122.108 71.6776 120.743 71.6776C119.378 71.6776 118.271 72.7381 118.271 74.0462C118.271 75.3543 119.378 76.4148 120.743 76.4148Z" fill="#253D4E"/>
<path d="M86.4699 126.155H27.0618L14.2072 85.8891H99.7081L99.6304 86.126L86.4699 126.155ZM27.3431 125.791H86.1911L99.1898 86.2535H14.7212L27.3431 125.791Z" fill="#2F2E41"/>
<path d="M81.8326 124.06H29.6522L18.3616 88.3488H93.46L93.3917 88.5591L81.8326 124.06Z" fill="#F2F2F2"/>
<path d="M100.773 82.2919L100.406 82.1984L102.915 73.1352H117.511V73.4997H103.208L100.773 82.2919Z" fill="#2F2E41"/>
<path d="M95.4357 98.0965H18.3613V98.4609H95.4357V98.0965Z" fill="#2F2E41"/>
<path d="M91.0218 111.522H22.6471V111.886H91.0218V111.522Z" fill="#2F2E41"/>
<path d="M57.1467 86.0714H56.7665V125.973H57.1467V86.0714Z" fill="#2F2E41"/>
<path d="M74.171 86.0599L71.4414 125.961L71.8209 125.984L74.5504 86.0838L74.171 86.0599Z" fill="#2F2E41"/>
<path d="M39.7501 86.0595L39.3706 86.0832L42.0843 125.985L42.4638 125.961L39.7501 86.0595Z" fill="#2F2E41"/>
<path d="M200 159.364H0V159.792H200V159.364Z" fill="#2F2E41"/>
<path d="M132.904 13.236C132.904 13.236 136.167 22.1361 134.159 23.5053C132.151 24.8746 140.936 36.0567 140.936 36.0567L151.478 33.3182L145.705 23.9617C145.705 23.9617 144.952 14.6053 144.952 13.236C144.952 11.8668 132.904 13.236 132.904 13.236Z" fill="#A0616A"/>
<path opacity="0.1" d="M132.904 13.236C132.904 13.236 136.167 22.1361 134.159 23.5053C132.151 24.8746 140.936 36.0567 140.936 36.0567L151.478 33.3182L145.705 23.9617C145.705 23.9617 144.952 14.6053 144.952 13.236C144.952 11.8668 132.904 13.236 132.904 13.236Z" fill="black"/>
<path d="M127.427 76.6776C127.427 76.6776 126.475 88.0879 127.427 94.0213C128.38 99.9547 129.808 116.386 129.808 116.386C129.808 116.386 129.808 147.422 135.047 147.878C140.286 148.335 144.096 148.791 144.573 146.965C145.049 145.14 142.191 144.227 143.62 143.314C145.049 142.401 145.525 139.206 143.62 135.555C141.715 131.904 143.62 94.9342 143.62 94.9342L152.669 118.211C152.669 118.211 153.621 137.381 154.574 140.119C155.527 142.858 153.621 147.878 156.955 148.335C160.289 148.791 164.099 146.053 166.004 145.14C167.909 144.227 163.147 144.227 164.099 143.77C165.052 143.314 167.909 141.945 166.957 141.488C166.004 141.032 165.052 119.124 165.052 119.124C165.052 119.124 162.432 72.3417 159.098 70.516C155.765 68.6903 153.621 71.8349 153.621 71.8349L127.427 76.6776Z" fill="#2F2E41"/>
<path d="M136 146.052V149.704C136 149.704 131.714 159.629 136 159.629C140.286 159.629 143.62 160.658 143.62 159.288V146.965L136 146.052Z" fill="#2F2E41"/>
<path d="M164.099 146.046V149.697C164.099 149.697 168.386 159.623 164.099 159.623C159.813 159.623 156.479 160.651 156.479 159.282V146.959L164.099 146.046Z" fill="#2F2E41"/>
<path d="M139.572 19.854C144.306 19.854 148.145 16.1758 148.145 11.6386C148.145 7.10129 144.306 3.42311 139.572 3.42311C134.837 3.42311 130.999 7.10129 130.999 11.6386C130.999 16.1758 134.837 19.854 139.572 19.854Z" fill="#A0616A"/>
<path d="M136.953 26.9284C136.953 26.9284 139.334 33.7746 143.144 32.4054L146.954 31.0361L153.622 74.8519C153.622 74.8519 148.383 82.1545 140.763 77.5904C133.142 73.0262 136.953 26.9284 136.953 26.9284Z" fill="#237D64"/>
<path d="M143.62 25.5592L145.763 21.2233C145.763 21.2233 158.384 26.9284 160.289 28.7541C162.194 30.5797 162.194 33.3182 162.194 33.3182L158.861 44.7286C158.861 44.7286 159.813 69.8313 159.813 70.7442C159.813 71.657 163.147 76.6776 160.766 74.8519C158.384 73.0263 157.908 71.2006 156.003 73.9391C154.098 76.6776 149.812 79.8725 149.812 79.8725L143.62 25.5592Z" fill="#253D4E"/>
<path d="M160.289 58.421L158.86 71.2006C158.86 71.2006 150.288 78.5032 152.193 78.9596C154.098 79.416 155.05 77.5904 155.05 77.5904C155.05 77.5904 158.384 80.7853 160.289 78.9596C162.194 77.134 166.957 59.7902 166.957 59.7902L160.289 58.421Z" fill="#A0616A"/>
<path d="M139.754 0.027781C137.854 -0.0373274 135.82 -0.0695342 134.218 0.911923C133.481 1.40447 132.834 2.0111 132.304 2.70697C130.744 4.59762 129.395 6.97649 129.975 9.32228L130.648 9.07063C130.648 9.69679 130.503 10.3151 130.223 10.8809C130.318 10.6167 130.635 11.0438 130.55 11.311L129.809 13.6428C131.028 13.2145 132.545 14.0817 132.73 15.3134C132.815 12.605 133.108 9.49935 135.401 7.91348C136.557 7.11373 138.02 6.86959 139.428 6.65279C140.727 6.45278 142.088 6.26206 143.332 6.6718C144.576 7.08153 145.635 8.30073 145.353 9.53199C145.927 9.34264 146.568 9.72573 146.852 10.2397C147.135 10.7537 147.15 11.3601 147.159 11.9414C147.77 12.3555 148.466 11.5332 148.715 10.8566C149.3 9.26849 149.82 7.57793 149.505 5.92106C149.19 4.26418 147.781 2.68078 146.023 2.67516C146.237 2.45062 146.351 2.15537 146.341 1.85187L144.892 1.73458C145.26 1.68468 145.598 1.51381 145.849 1.25123C145.267 1.86451 140.695 0.0599982 139.754 0.027781Z" fill="#2F2E41"/>
<path d="M139.334 24.19C139.334 24.19 135.457 20.549 134.061 20.772C132.666 20.9951 130.761 24.19 130.761 24.19C130.761 24.19 119.331 27.8413 119.807 31.4926C120.283 35.1439 125.522 52.944 125.522 52.944C125.522 52.944 129.808 74.3955 125.998 76.6776C122.188 78.9597 144.096 84.893 144.573 82.1546C145.049 79.4161 146.001 52.0312 144.573 47.9235C143.144 43.8158 139.334 24.19 139.334 24.19Z" fill="#253D4E"/>
<path d="M156.003 31.4926H161.892C161.892 31.4926 166.004 48.8363 166.481 50.662C166.957 52.4876 167.909 61.1595 167.433 61.1595C166.957 61.1595 157.432 59.3339 157.432 60.7031L156.003 31.4926Z" fill="#253D4E"/>
<path d="M155.804 74.4413H133.259C131.059 64.7426 130.875 55.3718 133.259 46.4189H155.804C152.165 55.2108 151.938 64.5173 155.804 74.4413Z" fill="#F2F2F2"/>
<path d="M124.093 62.5287L130.761 65.2672C130.761 65.2672 143.62 67.0929 143.62 62.0723C143.62 57.0518 130.761 59.7903 130.761 59.7903L126.474 58.4768L124.093 62.5287Z" fill="#A0616A"/>
<path d="M125.522 28.7541L119.807 30.1234L115.521 54.3133C115.521 54.3133 114.092 60.7031 116.473 61.1595C118.854 61.6159 125.522 65.2672 125.522 65.2672C125.522 65.2672 126.475 58.421 128.38 58.421L123.617 54.7697L126.475 38.7952L125.522 28.7541Z" fill="#253D4E"/>
<path d="M44.6983 75.4912H13.4483V75.919H44.6983V75.4912Z" fill="#F2F2F2"/>
<path d="M22.3769 71.6407H21.9305V75.5981H22.3769V71.6407Z" fill="#F2F2F2"/>
<path d="M35.9929 71.6407H35.5465V75.5981H35.9929V71.6407Z" fill="#F2F2F2"/>
<path d="M55.6358 12.1732H24.3858V12.6011H55.6358V12.1732Z" fill="#F2F2F2"/>
<path d="M47.1537 12.4941H46.7073V16.4515H47.1537V12.4941Z" fill="#F2F2F2"/>
<path d="M33.5376 12.4941H33.0912V16.4515H33.5376V12.4941Z" fill="#F2F2F2"/>
<path d="M87.109 54.3139H55.859V54.7417H87.109V54.3139Z" fill="#F2F2F2"/>
<path d="M78.6269 54.6348H78.1805V58.5921H78.6269V54.6348Z" fill="#F2F2F2"/>
<path d="M65.0108 54.6348H64.5644V58.5921H65.0108V54.6348Z" fill="#F2F2F2"/>
<path d="M33.984 54.1H2.73404V54.5278H33.984V54.1Z" fill="#F2F2F2"/>
<path d="M25.5019 54.4208H25.0555V58.3782H25.5019V54.4208Z" fill="#F2F2F2"/>
<path d="M11.8858 54.4208H11.4394V58.3782H11.8858V54.4208Z" fill="#F2F2F2"/>
<path d="M71.484 32.7088H40.234V33.1366H71.484V32.7088Z" fill="#F2F2F2"/>
<path d="M49.1626 28.8584H48.7162V32.8157H49.1626V28.8584Z" fill="#F2F2F2"/>
<path d="M62.7787 28.8584H62.3323V32.8157H62.7787V28.8584Z" fill="#F2F2F2"/>
</g>
<defs>
<clipPath id="clip0_546_7508">
<rect width="200" height="160" fill="white"/>
</clipPath>
</defs>
</svg>
