<svg width="200" height="160" viewBox="0 0 200 160" fill="none" xmlns="http://www.w3.org/2000/svg">
<path d="M10.4348 159.642C10.4214 159.564 9.12745 151.713 11.7701 145.192C14.4127 138.671 20.0537 135.795 20.1104 135.767L20.3682 135.638L20.4291 135.996C20.4424 136.074 21.7364 143.925 19.0938 150.446C16.4513 156.967 10.8102 159.843 10.7535 159.871L10.4956 160L10.4348 159.642ZM20.0146 136.511C18.8847 137.157 14.4252 139.988 12.1932 145.495C9.96108 151.003 10.6345 157.517 10.8493 159.127C11.9787 158.482 16.4365 155.656 18.6706 150.143C20.9027 144.635 20.2295 138.122 20.0146 136.511V136.511Z" fill="#237D64"/>
<path d="M17.0743 148.159C12.3254 151.961 10.4964 159.512 10.4964 159.512C10.4964 159.512 16.367 160.899 21.116 157.098C25.8649 153.296 27.6939 145.745 27.6939 145.745C27.6939 145.745 21.8233 144.357 17.0743 148.159Z" fill="#237D64"/>
<path d="M88.9913 87.2155C89.0637 86.7181 89.0533 86.2056 88.9607 85.7142C88.8682 85.2228 88.6958 84.7643 88.4557 84.3711C88.2156 83.9779 87.9136 83.6596 87.571 83.4385C87.2284 83.2174 86.8536 83.0989 86.4728 83.0915L84.2737 75.7327L80.5869 76.4203L83.8022 86.7542C83.8351 87.606 84.1018 88.4122 84.5516 89.02C85.0014 89.6277 85.6031 89.9948 86.2428 90.0517C86.8824 90.1086 87.5155 89.8512 88.0221 89.3285C88.5286 88.8058 88.8735 88.054 88.9913 87.2155Z" fill="#FFB531"/>
<path d="M82.199 84.6298L81.0566 81.0052L73.9378 62.9749L74.3249 29.6123L74.3992 29.5992C78.9543 28.7984 82.0363 56.725 82.1653 57.9143L86.6631 78.3824L87.7338 82.8939L82.199 84.6298Z" fill="#237D64"/>
<path d="M71.2608 154.98L74.722 154.98L76.3684 137.216L71.2601 137.217L71.2608 154.98Z" fill="#FFB531"/>
<path d="M70.3778 153.477L77.1941 153.476H77.1944C78.3465 153.476 79.4513 154.085 80.2659 155.169C81.0806 156.253 81.5383 157.723 81.5383 159.256V159.444L70.378 159.444L70.3778 153.477Z" fill="#253D4E"/>
<path d="M39.4362 147.963L42.2761 150.596L51.2599 137.275L47.0686 133.389L39.4362 147.963Z" fill="#FFB531"/>
<path d="M39.3579 146.058L44.9504 151.243L44.9507 151.244C45.8958 152.12 46.5406 153.46 46.7432 154.969C46.9458 156.478 46.6896 158.032 46.031 159.29L45.9503 159.444L36.7938 150.954L39.3579 146.058Z" fill="#253D4E"/>
<path d="M69.3584 150.805L69.2089 117.481L67.0311 96.5278L62.9708 114.954L62.9629 114.97L48.249 143.393L42.5237 139.533L42.555 139.434C42.9049 138.326 51.1496 112.319 53.3657 112.319C53.5592 112.337 53.7531 112.292 53.9307 112.188C54.1083 112.084 54.2643 111.925 54.3852 111.723C55.0356 110.567 54.506 108.115 54.5005 108.09C53.8661 104.59 55.4612 103.398 55.7789 103.199L56.6334 79.7287L56.722 79.7368L79.8868 81.8988L78.9149 111.243L76.8244 149.69L76.7526 149.701L69.3584 150.805Z" fill="#253D4E"/>
<path d="M80.2406 87.0995L80.1405 87.0886L55.2273 84.4166L55.2888 73.4484L56.5082 44.8102L56.5151 44.7903L61.4809 30.4457L65.001 28.3248L70.1368 27.9652L70.1493 27.9694L74.8363 29.5145L79.712 76.0857L80.2406 87.0995Z" fill="#237D64"/>
<path d="M70.9416 24.289C74.1203 21.9769 75.2885 16.6739 73.5509 12.4444C71.8132 8.21488 67.8277 6.66048 64.649 8.97255C61.4703 11.2846 60.3021 16.5876 62.0398 20.8171C63.7774 25.0467 67.7629 26.6011 70.9416 24.289Z" fill="#FFB531"/>
<path d="M61.1987 18.8216V15.4211C61.1987 15.4211 59.1377 12.1913 61.4048 11.3777C61.4048 11.3777 62.0231 3.24177 67.3817 7.03853C67.3817 7.03853 74.8014 5.41135 73.977 11.1065C73.977 11.1065 75.8319 9.61968 75.2136 13.4164L74.0178 19.5324C74.0178 19.5324 74.5953 15.4924 72.7404 14.9499L71.7099 14.1364C71.7099 14.1364 68.8244 17.9331 64.4963 13.3228C64.4963 13.3228 62.6414 12.7337 62.8475 15.1745C63.0536 17.6152 61.1987 18.8216 61.1987 18.8216Z" fill="#253D4E"/>
<path d="M67.1124 78.9087C67.1165 78.4022 67.0371 77.9005 66.8798 77.4391C66.7225 76.9778 66.4911 76.5679 66.2018 76.2385C65.9126 75.909 65.5726 75.6679 65.2057 75.5322C64.8389 75.3965 64.4541 75.3695 64.0786 75.453L60.9226 68.7388L57.3884 70.2955L61.9453 79.694C62.0926 80.5241 62.4636 81.2536 62.9881 81.7441C63.5126 82.2345 64.1541 82.452 64.791 82.3552C65.4279 82.2584 66.016 81.8541 66.4439 81.2189C66.8717 80.5837 67.1096 79.7617 67.1124 78.9087Z" fill="#FFB531"/>
<path d="M58.9612 76.7923L53.2516 61.3682L53.2567 61.3307C53.2797 61.1599 55.578 44.1802 57.3358 37.9389C59.1047 31.6581 61.526 30.3971 61.6282 30.3465L61.6793 30.3212L63.8503 33.0921L60.8429 59.8017L64.0846 72.6833L58.9612 76.7923Z" fill="#237D64"/>
<path d="M200 0H188.945V14.7095H200V0Z" fill="#F1F1F1"/>
<path d="M113.483 57.2392H102.428V71.9487H113.483V57.2392Z" fill="#F1F1F1"/>
<path d="M108.633 65.503H196.033V6.63014H108.633V65.503Z" fill="white"/>
<path d="M196.754 66.4623H107.912V5.67078H196.754V66.4623ZM109.354 64.5437H195.312V7.58941H109.354V64.5437Z" fill="#E5E5E5"/>
<path d="M186.368 27.2816H119.124V30.2488H186.368V27.2816Z" fill="#E5E5E5"/>
<path d="M186.368 34.4775H119.124V37.4447H186.368V34.4775Z" fill="#E5E5E5"/>
<path d="M186.368 45.1024H173.871V47.6774H186.368V45.1024Z" fill="#237D64"/>
<path d="M91.8042 159.987H0.240325C0.176587 159.987 0.115459 159.953 0.0703894 159.893C0.0253197 159.834 0 159.752 0 159.667C0 159.583 0.0253197 159.501 0.0703894 159.441C0.115459 159.381 0.176587 159.348 0.240325 159.348H91.8042C91.8679 159.348 91.9291 159.381 91.9741 159.441C92.0192 159.501 92.0445 159.583 92.0445 159.667C92.0445 159.752 92.0192 159.834 91.9741 159.893C91.9291 159.953 91.8679 159.987 91.8042 159.987Z" fill="#CBCBCB"/>
</svg>
